<?xml version="1.0" encoding="iso-8859-1"?>
<!-- Generator: Adobe Illustrator 19.0.0, SVG Export Plug-In . SVG Version: 6.00 Build 0)  -->
<svg version="1.1" id="&#x56FE;&#x5C42;_1" xmlns="http://www.w3.org/2000/svg" xmlns:xlink="http://www.w3.org/1999/xlink" x="0px"
	 y="0px" viewBox="0 0 1586.189 364.541" style="enable-background:new 0 0 1586.189 364.541;" xml:space="preserve">
<g id="XMLID_126_">
	<path id="XMLID_132_" style="fill:#5078BB;" d="M522.204,236.545c-39.636,0-71.752-32.115-71.752-71.751
		s32.116-71.752,71.752-71.752s71.751,32.116,71.751,71.752S561.84,236.545,522.204,236.545z M522.204,105.847
		c-32.522,0-58.743,26.424-58.743,58.946c0,32.318,26.221,58.743,58.743,58.743s58.743-26.424,58.743-58.743
		C580.947,132.271,554.726,105.847,522.204,105.847z"/>
	<path id="XMLID_135_" style="fill:#5078BB;" d="M714.08,181.664c0,31.302-22.359,54.881-51.832,54.881
		c-15.854,0-29.676-6.708-39.026-17.887v67.28c0,3.659-2.846,6.504-6.504,6.504c-3.455,0-6.504-2.846-6.504-6.504V133.084
		c0-3.456,3.049-6.301,6.504-6.301c3.659,0,6.504,2.846,6.504,6.301v11.383c9.35-10.977,23.172-17.684,39.026-17.684
		C691.721,126.783,714.08,150.362,714.08,181.664z M701.274,181.664c0-23.985-16.871-42.075-39.026-42.075
		c-22.358,0-39.026,18.09-39.026,42.075c0,23.782,16.668,41.872,39.026,41.872C684.404,223.536,701.274,205.446,701.274,181.664z"/>
	<path id="XMLID_138_" style="fill:#5078BB;" d="M781.156,236.545c-29.677,0-51.832-23.579-51.832-54.881
		c0-14.838,4.878-28.457,13.822-38.62c9.35-10.57,22.562-16.261,36.994-16.261c29.066,0,50.002,22.969,50.002,54.881
		c0,3.456-2.846,6.504-6.504,6.504h-81.102c2.846,20.529,18.497,35.368,38.62,35.368c13.618,0,25.611-6.504,32.522-18.293
		c2.032-3.049,5.895-3.862,8.943-2.033c3.049,1.829,4.065,5.895,2.236,8.943C815.304,227.602,799.45,236.545,781.156,236.545z
		 M742.536,175.16h74.191c-2.439-21.139-16.667-35.571-36.587-35.571C760.22,139.589,745.179,154.224,742.536,175.16z"/>
	<path id="XMLID_141_" style="fill:#5078BB;" d="M936.04,173.534v56.507c0,3.659-2.846,6.504-6.301,6.504
		c-3.659,0-6.504-2.846-6.504-6.504v-56.507c0-19.513-12.805-33.945-30.489-33.945c-18.293,0-32.522,15.042-32.522,33.945v1.016
		c0,0.203,0,0.407,0,0.61v54.881c0,3.659-2.846,6.504-6.504,6.504c-3.456,0-6.301-2.846-6.301-6.504v-96.956
		c0-3.456,2.846-6.301,6.301-6.301c3.659,0,6.504,2.846,6.504,6.301v7.317c8.334-8.537,19.716-13.619,32.522-13.619
		c12.399,0,23.782,4.878,31.709,14.025C931.974,149.345,936.04,160.931,936.04,173.534z"/>
	<path id="XMLID_143_" style="fill:#272626;" d="M954.932,221.261l52.999-136.367c2.117-4.764,5.458-7.146,10.024-7.146
		c4.697,0,8.039,2.382,10.024,7.146l53.197,136.863c0.529,1.325,0.794,2.747,0.794,4.268c0,2.913-1.026,5.394-3.077,7.444
		c-2.052,2.052-4.533,3.077-7.443,3.077c-2.913,0-5.359-1.025-7.344-3.077c-1.06-1.058-1.854-2.184-2.382-3.375l-18.361-47.143
		h-50.815l-18.46,47.143c-0.53,1.191-1.324,2.317-2.382,3.375c-2.052,2.052-4.533,3.077-7.444,3.077
		c-2.912,0-5.376-1.025-7.394-3.077c-2.019-2.05-3.027-4.531-3.027-7.444C953.84,224.437,954.203,222.849,954.932,221.261z
		 M1035.224,161.911l-17.269-44.562l-17.269,44.562H1035.224z"/>
	<path id="XMLID_146_" style="fill:#272626;" d="M1095.868,125.387h4.665V88.07c0-2.844,1.008-5.275,3.027-7.294
		c2.018-2.018,4.481-3.027,7.394-3.027c2.844,0,5.275,1.01,7.294,3.027c2.018,2.019,3.027,4.451,3.027,7.294v37.317h12.406
		c2.844,0,5.26,1.01,7.244,3.027c1.986,2.019,2.979,4.45,2.979,7.294c0,2.913-0.992,5.376-2.979,7.394
		c-1.984,2.019-4.4,3.027-7.244,3.027h-12.406v49.922c0,13.167,6.615,19.75,19.85,19.75c2.844,0,5.26,1.009,7.244,3.027
		c1.986,2.019,2.979,4.451,2.979,7.295c0,2.912-0.992,5.376-2.979,7.394c-1.984,2.019-4.4,3.027-7.244,3.027
		c-27.062,0-40.593-13.498-40.593-40.493V146.13h-4.665c-2.779,0-5.178-1.008-7.195-3.027c-2.019-2.018-3.027-4.481-3.027-7.394
		c0-2.844,1.008-5.275,3.027-7.294C1090.69,126.397,1093.089,125.387,1095.868,125.387z"/>
	<path id="XMLID_148_" style="fill:#272626;" d="M1171.201,125.387h4.665V88.07c0-2.844,1.008-5.275,3.026-7.294
		c2.018-2.018,4.482-3.027,7.395-3.027c2.844,0,5.275,1.01,7.295,3.027c2.018,2.019,3.026,4.451,3.026,7.294v37.317h12.406
		c2.844,0,5.26,1.01,7.245,3.027c1.985,2.019,2.978,4.45,2.978,7.294c0,2.913-0.992,5.376-2.978,7.394
		c-1.985,2.019-4.401,3.027-7.245,3.027h-12.406v49.922c0,13.167,6.616,19.75,19.85,19.75c2.845,0,5.261,1.009,7.245,3.027
		c1.985,2.019,2.978,4.451,2.978,7.295c0,2.912-0.992,5.376-2.978,7.394c-1.984,2.019-4.4,3.027-7.245,3.027
		c-27.062,0-40.592-13.498-40.592-40.493V146.13h-4.665c-2.779,0-5.178-1.008-7.195-3.027c-2.02-2.018-3.027-4.481-3.027-7.394
		c0-2.844,1.008-5.275,3.027-7.294C1166.023,126.397,1168.422,125.387,1171.201,125.387z"/>
	<path id="XMLID_150_" style="fill:#272626;" d="M1321.367,226.223v-1.985c-4.962,3.97-10.355,7.014-16.177,9.131
		c-5.823,2.118-12.044,3.176-18.659,3.176c-15.351,0-28.451-5.424-39.302-16.277c-10.853-10.851-16.277-23.951-16.277-39.302
		c0-15.35,5.425-28.45,16.277-39.302c10.851-10.851,23.951-16.277,39.302-16.277c15.218,0,28.318,5.426,39.303,16.277
		c10.851,10.852,16.276,23.953,16.276,39.302v45.257c0,2.846-1.01,5.277-3.027,7.295c-2.019,2.019-4.45,3.027-7.295,3.027
		c-2.912,0-5.376-1.008-7.394-3.027C1322.375,231.5,1321.367,229.069,1321.367,226.223z M1286.531,146.13
		c-4.897,0-9.463,0.928-13.696,2.779c-4.235,1.853-7.907,4.351-11.017,7.493c-3.11,3.143-5.574,6.833-7.394,11.066
		c-1.82,4.235-2.729,8.734-2.729,13.498c0,4.764,0.909,9.264,2.729,13.498c1.819,4.235,4.283,7.924,7.394,11.066
		c3.109,3.144,6.781,5.642,11.017,7.493c4.233,1.854,8.799,2.779,13.696,2.779c4.829,0,9.362-0.926,13.597-2.779
		c4.234-1.852,7.923-4.367,11.066-7.542c3.142-3.176,5.623-6.864,7.443-11.066c1.819-4.201,2.729-8.684,2.729-13.448
		c0-4.764-0.91-9.246-2.729-13.448c-1.82-4.201-4.302-7.89-7.443-11.066c-3.144-3.176-6.832-5.689-11.066-7.542
		C1295.894,147.058,1291.36,146.13,1286.531,146.13z"/>
	<path id="XMLID_153_" style="fill:#272626;" d="M1438.483,205.083c2.978,0,5.441,0.977,7.394,2.928
		c1.951,1.952,2.929,4.417,2.929,7.394c0,2.912-1.092,5.458-3.275,7.642c-10.257,8.999-22.331,13.498-36.226,13.498
		c-15.351,0-28.452-5.424-39.303-16.277c-10.852-10.851-16.276-23.951-16.276-39.302c0-15.35,5.425-28.45,16.276-39.302
		c10.851-10.851,23.952-16.277,39.303-16.277c13.96,0,26.035,4.5,36.226,13.498c2.382,2.119,3.572,4.731,3.572,7.841
		c0,2.978-0.977,5.458-2.928,7.443c-1.952,1.985-4.416,2.978-7.394,2.978c-2.516,0-4.764-0.794-6.749-2.382
		c-3.374-2.844-6.915-4.995-10.619-6.451c-3.707-1.455-7.741-2.184-12.108-2.184c-4.831,0-9.363,0.911-13.597,2.729
		c-4.235,1.821-7.94,4.302-11.116,7.443c-3.176,3.144-5.674,6.833-7.493,11.066c-1.82,4.235-2.729,8.768-2.729,13.597
		c0,4.831,0.909,9.363,2.729,13.597c1.819,4.235,4.317,7.924,7.493,11.066c3.176,3.143,6.881,5.625,11.116,7.443
		c4.233,1.821,8.766,2.729,13.597,2.729c4.367,0,8.401-0.71,12.108-2.134c3.704-1.422,7.211-3.556,10.52-6.402
		C1433.785,205.877,1435.968,205.15,1438.483,205.083z"/>
	<path id="XMLID_155_" style="fill:#272626;" d="M1460.817,226.124V88.169c0-2.911,1.008-5.375,3.027-7.394
		c2.018-2.018,4.481-3.027,7.394-3.027c2.845,0,5.276,1.01,7.295,3.027c2.018,2.019,3.027,4.483,3.027,7.394v77.413l59.35-38.607
		c1.653-1.058,3.507-1.588,5.559-1.588c1.454,0,2.812,0.265,4.069,0.794c1.256,0.53,2.348,1.275,3.274,2.233
		c0.926,0.959,1.671,2.068,2.233,3.325c0.562,1.257,0.844,2.58,0.844,3.97c0,3.707-1.324,6.451-3.97,8.238l-41.585,26.995
		l42.677,48.036c1.918,2.118,2.878,4.533,2.878,7.245c0,1.39-0.282,2.714-0.844,3.97c-0.562,1.258-1.308,2.367-2.233,3.325
		c-0.927,0.959-2.019,1.704-3.274,2.233c-1.258,0.53-2.615,0.794-4.069,0.794c-2.779,0-5.096-0.893-6.947-2.68l-45.853-51.51
		l-12.108,7.94v35.829c0,2.846-1.01,5.294-3.027,7.344c-2.019,2.052-4.45,3.077-7.295,3.077c-2.912,0-5.376-1.025-7.394-3.077
		C1461.825,231.418,1460.817,228.97,1460.817,226.124z"/>
</g>
<path id="XMLID_657_" style="fill:#5078BB;" d="M260.37,30.66L134.006,74.608c-6.243,1.762-10.638,7.325-10.89,13.807
	c-1.599,41.117,2.648,186.96,137.254,243.086c0,0,140.755-45.531,140.244-242.412c-0.016-6.008-4.03-11.289-9.808-12.937
	L260.37,30.66z"/>
<g id="XMLID_652_">
	<polyline id="XMLID_654_" style="fill:none;stroke:#FFFFFF;stroke-width:16.949;stroke-miterlimit:10;" points="273.172,277.184 
		223.431,171.301 275.528,142.532 217.428,45.457 	"/>
	
		<line id="XMLID_653_" style="fill:none;stroke:#FFFFFF;stroke-width:16.949;stroke-miterlimit:10;" x1="204.218" y1="45.974" x2="275.528" y2="142.532"/>
</g>
<g id="XMLID_647_">
	<g id="XMLID_128_">
		<path id="XMLID_129_" style="fill:#272626;" d="M118.753,69.399l-34.472,54.165c-0.591,0.928-1.833,1.204-2.761,0.613
			l-8.888-5.656c-0.928-0.591-1.204-1.833-0.613-2.761l34.472-54.165c0.591-0.928,1.833-1.204,2.761-0.613l8.888,5.656
			C119.067,67.228,119.343,68.471,118.753,69.399z"/>
	</g>
</g>
<g id="XMLID_639_">
	<g id="XMLID_130_">
		<path id="XMLID_131_" style="fill:#272626;" d="M54.025,45.032L36.254,72.956c-0.591,0.928-1.833,1.204-2.761,0.613l-6.67-4.245
			c-0.928-0.591-1.204-1.833-0.613-2.761L43.98,38.64c0.591-0.928,1.833-1.204,2.761-0.613l6.67,4.245
			C54.34,42.862,54.616,44.104,54.025,45.032z"/>
	</g>
</g>
<polygon id="XMLID_533_" style="fill:#272626;" points="91.674,110.528 379.378,301.212 444.354,320.829 400.616,267.537 
	112.911,76.854 "/>
<rect id="XMLID_529_" x="56.829" y="45.302" transform="matrix(0.5452 -0.8383 0.8383 0.5452 -31.0143 88.8068)" style="fill:#272626;" width="19.013" height="55.368"/>
<polygon id="XMLID_519_" style="fill:#5078BB;" points="248.828,166.936 261.762,284.375 335.661,278.852 363.549,241.035 "/>
</svg>
