<?xml version="1.0" encoding="iso-8859-1"?>
<!-- Generator: Adobe Illustrator 19.0.0, SVG Export Plug-In . SVG Version: 6.00 Build 0)  -->
<svg version="1.1" id="&#x56FE;&#x5C42;_1" xmlns="http://www.w3.org/2000/svg" xmlns:xlink="http://www.w3.org/1999/xlink" x="0px"
	 y="0px" viewBox="0 0 1586.189 364.541" style="enable-background:new 0 0 1586.189 364.541;" xml:space="preserve">
<g id="XMLID_126_">
	<path id="XMLID_132_" style="fill:#5078BB;" d="M522.204,2108.317c-39.636,0-71.752-32.115-71.752-71.752
		c0-39.636,32.116-71.752,71.752-71.752s71.751,32.116,71.751,71.752C593.956,2076.201,561.84,2108.317,522.204,2108.317z
		 M522.204,1977.619c-32.522,0-58.743,26.424-58.743,58.946c0,32.318,26.221,58.743,58.743,58.743s58.743-26.424,58.743-58.743
		C580.947,2004.043,554.726,1977.619,522.204,1977.619z"/>
	<path id="XMLID_135_" style="fill:#5078BB;" d="M714.08,2053.436c0,31.302-22.359,54.881-51.832,54.881
		c-15.854,0-29.676-6.708-39.026-17.887v67.28c0,3.659-2.846,6.504-6.504,6.504c-3.455,0-6.504-2.846-6.504-6.504v-152.853
		c0-3.456,3.049-6.301,6.504-6.301c3.659,0,6.504,2.846,6.504,6.301v11.383c9.35-10.977,23.172-17.684,39.026-17.684
		C691.721,1998.555,714.08,2022.133,714.08,2053.436z M701.274,2053.436c0-23.985-16.871-42.075-39.026-42.075
		c-22.358,0-39.026,18.09-39.026,42.075c0,23.782,16.668,41.872,39.026,41.872C684.404,2095.308,701.274,2077.218,701.274,2053.436z
		"/>
	<path id="XMLID_138_" style="fill:#5078BB;" d="M781.156,2108.317c-29.677,0-51.832-23.579-51.832-54.881
		c0-14.838,4.878-28.457,13.822-38.62c9.35-10.57,22.562-16.261,36.994-16.261c29.066,0,50.002,22.969,50.002,54.881
		c0,3.456-2.846,6.504-6.504,6.504h-81.102c2.846,20.529,18.497,35.368,38.62,35.368c13.618,0,25.611-6.504,32.522-18.293
		c2.032-3.049,5.895-3.862,8.943-2.033c3.049,1.829,4.065,5.895,2.236,8.943C815.304,2099.373,799.45,2108.317,781.156,2108.317z
		 M742.536,2046.931h74.191c-2.439-21.139-16.667-35.571-36.587-35.571C760.22,2011.36,745.179,2025.995,742.536,2046.931z"/>
	<path id="XMLID_141_" style="fill:#5078BB;" d="M936.04,2045.305v56.507c0,3.659-2.846,6.504-6.301,6.504
		c-3.659,0-6.504-2.846-6.504-6.504v-56.507c0-19.513-12.805-33.945-30.489-33.945c-18.293,0-32.522,15.042-32.522,33.945v1.016
		c0,0.203,0,0.407,0,0.61v54.881c0,3.659-2.846,6.504-6.504,6.504c-3.456,0-6.301-2.846-6.301-6.504v-96.956
		c0-3.456,2.846-6.301,6.301-6.301c3.659,0,6.504,2.846,6.504,6.301v7.317c8.334-8.537,19.716-13.619,32.522-13.619
		c12.399,0,23.782,4.878,31.709,14.025C931.974,2021.117,936.04,2032.703,936.04,2045.305z"/>
	<path id="XMLID_143_" style="fill:#272626;" d="M954.932,2093.032l52.999-136.367c2.117-4.764,5.458-7.146,10.024-7.146
		c4.697,0,8.039,2.382,10.024,7.146l53.197,136.863c0.529,1.325,0.794,2.747,0.794,4.268c0,2.913-1.026,5.394-3.077,7.444
		c-2.052,2.052-4.533,3.077-7.443,3.077c-2.913,0-5.359-1.025-7.344-3.077c-1.06-1.058-1.854-2.184-2.382-3.375l-18.361-47.143
		h-50.815l-18.46,47.143c-0.53,1.191-1.324,2.317-2.382,3.375c-2.052,2.052-4.533,3.077-7.444,3.077
		c-2.912,0-5.376-1.025-7.394-3.077c-2.019-2.05-3.027-4.531-3.027-7.444C953.84,2096.208,954.203,2094.62,954.932,2093.032z
		 M1035.224,2033.682l-17.269-44.562l-17.269,44.562H1035.224z"/>
	<path id="XMLID_146_" style="fill:#272626;" d="M1095.868,1997.159h4.665v-37.317c0-2.844,1.008-5.275,3.027-7.294
		c2.018-2.018,4.481-3.027,7.394-3.027c2.844,0,5.275,1.01,7.294,3.027c2.018,2.019,3.027,4.451,3.027,7.294v37.317h12.406
		c2.844,0,5.26,1.01,7.244,3.027c1.986,2.019,2.979,4.45,2.979,7.294c0,2.913-0.992,5.376-2.979,7.394
		c-1.984,2.019-4.4,3.027-7.244,3.027h-12.406v49.922c0,13.167,6.615,19.75,19.85,19.75c2.844,0,5.26,1.009,7.244,3.027
		c1.986,2.019,2.979,4.451,2.979,7.295c0,2.912-0.992,5.376-2.979,7.394c-1.984,2.019-4.4,3.027-7.244,3.027
		c-27.062,0-40.593-13.498-40.593-40.493v-49.922h-4.665c-2.779,0-5.178-1.008-7.195-3.027c-2.019-2.018-3.027-4.481-3.027-7.394
		c0-2.844,1.008-5.275,3.027-7.294C1090.69,1998.169,1093.089,1997.159,1095.868,1997.159z"/>
	<path id="XMLID_148_" style="fill:#272626;" d="M1171.201,1997.159h4.665v-37.317c0-2.844,1.008-5.275,3.026-7.294
		c2.018-2.018,4.482-3.027,7.395-3.027c2.844,0,5.275,1.01,7.295,3.027c2.018,2.019,3.026,4.451,3.026,7.294v37.317h12.406
		c2.844,0,5.26,1.01,7.245,3.027c1.985,2.019,2.978,4.45,2.978,7.294c0,2.913-0.992,5.376-2.978,7.394
		c-1.985,2.019-4.401,3.027-7.245,3.027h-12.406v49.922c0,13.167,6.616,19.75,19.85,19.75c2.845,0,5.261,1.009,7.245,3.027
		c1.985,2.019,2.978,4.451,2.978,7.295c0,2.912-0.992,5.376-2.978,7.394c-1.984,2.019-4.4,3.027-7.245,3.027
		c-27.062,0-40.592-13.498-40.592-40.493v-49.922h-4.665c-2.779,0-5.178-1.008-7.195-3.027c-2.02-2.018-3.027-4.481-3.027-7.394
		c0-2.844,1.008-5.275,3.027-7.294C1166.023,1998.169,1168.422,1997.159,1171.201,1997.159z"/>
	<path id="XMLID_150_" style="fill:#272626;" d="M1321.367,2097.995v-1.985c-4.962,3.97-10.355,7.014-16.177,9.131
		c-5.823,2.118-12.044,3.176-18.659,3.176c-15.351,0-28.451-5.424-39.302-16.277c-10.853-10.851-16.277-23.951-16.277-39.302
		c0-15.35,5.425-28.45,16.277-39.302c10.851-10.851,23.951-16.277,39.302-16.277c15.218,0,28.318,5.426,39.303,16.277
		c10.851,10.852,16.276,23.953,16.276,39.302v45.257c0,2.846-1.01,5.277-3.027,7.295c-2.019,2.019-4.45,3.027-7.295,3.027
		c-2.912,0-5.376-1.008-7.394-3.027C1322.375,2103.272,1321.367,2100.841,1321.367,2097.995z M1286.531,2017.901
		c-4.897,0-9.463,0.928-13.696,2.779c-4.235,1.853-7.907,4.351-11.017,7.493c-3.11,3.143-5.574,6.833-7.394,11.066
		c-1.82,4.235-2.729,8.734-2.729,13.498c0,4.764,0.909,9.264,2.729,13.498c1.819,4.235,4.283,7.924,7.394,11.066
		c3.109,3.144,6.781,5.642,11.017,7.493c4.233,1.854,8.799,2.779,13.696,2.779c4.829,0,9.362-0.926,13.597-2.779
		c4.234-1.852,7.923-4.367,11.066-7.542c3.142-3.176,5.623-6.864,7.443-11.066c1.819-4.201,2.729-8.684,2.729-13.448
		c0-4.764-0.91-9.246-2.729-13.448c-1.82-4.201-4.302-7.89-7.443-11.066c-3.144-3.176-6.832-5.689-11.066-7.542
		C1295.894,2018.829,1291.36,2017.901,1286.531,2017.901z"/>
	<path id="XMLID_153_" style="fill:#272626;" d="M1438.483,2076.855c2.978,0,5.441,0.977,7.394,2.928
		c1.951,1.952,2.929,4.417,2.929,7.394c0,2.912-1.092,5.458-3.275,7.642c-10.257,8.999-22.331,13.498-36.226,13.498
		c-15.351,0-28.452-5.424-39.303-16.277c-10.852-10.851-16.276-23.951-16.276-39.302c0-15.35,5.425-28.45,16.276-39.302
		c10.851-10.851,23.952-16.277,39.303-16.277c13.96,0,26.035,4.5,36.226,13.498c2.382,2.119,3.572,4.731,3.572,7.841
		c0,2.978-0.977,5.458-2.928,7.443c-1.952,1.985-4.416,2.978-7.394,2.978c-2.516,0-4.764-0.794-6.749-2.382
		c-3.374-2.844-6.915-4.995-10.619-6.451c-3.707-1.455-7.741-2.184-12.108-2.184c-4.831,0-9.363,0.911-13.597,2.729
		c-4.235,1.821-7.94,4.302-11.116,7.443c-3.176,3.144-5.674,6.833-7.493,11.066c-1.82,4.235-2.729,8.768-2.729,13.597
		c0,4.831,0.909,9.363,2.729,13.597c1.819,4.235,4.317,7.924,7.493,11.066c3.176,3.143,6.881,5.625,11.116,7.443
		c4.233,1.821,8.766,2.729,13.597,2.729c4.367,0,8.401-0.71,12.108-2.134c3.704-1.422,7.211-3.556,10.52-6.402
		C1433.785,2077.649,1435.968,2076.922,1438.483,2076.855z"/>
	<path id="XMLID_155_" style="fill:#272626;" d="M1460.817,2097.896v-137.955c0-2.911,1.008-5.375,3.027-7.394
		c2.018-2.018,4.481-3.027,7.394-3.027c2.845,0,5.276,1.01,7.295,3.027c2.018,2.019,3.027,4.483,3.027,7.394v77.413l59.35-38.607
		c1.653-1.058,3.507-1.588,5.559-1.588c1.454,0,2.812,0.265,4.069,0.794c1.256,0.53,2.348,1.275,3.274,2.233
		c0.926,0.959,1.671,2.068,2.233,3.325c0.562,1.257,0.844,2.58,0.844,3.97c0,3.707-1.324,6.451-3.97,8.238l-41.585,26.995
		l42.677,48.036c1.918,2.118,2.878,4.533,2.878,7.245c0,1.39-0.282,2.714-0.844,3.97c-0.562,1.258-1.308,2.367-2.233,3.325
		c-0.927,0.959-2.019,1.704-3.274,2.233c-1.258,0.53-2.615,0.794-4.069,0.794c-2.779,0-5.096-0.893-6.947-2.68l-45.853-51.51
		l-12.108,7.94v35.829c0,2.846-1.01,5.294-3.027,7.344c-2.019,2.052-4.45,3.077-7.295,3.077c-2.912,0-5.376-1.025-7.394-3.077
		C1461.825,2103.19,1460.817,2100.741,1460.817,2097.896z"/>
</g>
<path id="XMLID_657_" style="fill:#5078BB;" d="M260.37,1902.431l-126.364,43.948c-6.243,1.762-10.638,7.325-10.89,13.807
	c-1.599,41.117,2.648,186.96,137.254,243.087c0,0,140.755-45.531,140.244-242.412c-0.016-6.008-4.03-11.289-9.808-12.937
	L260.37,1902.431z"/>
<g id="XMLID_652_">
	<polyline id="XMLID_654_" style="fill:none;stroke:#FFFFFF;stroke-width:16.949;stroke-miterlimit:10;" points="273.172,2148.955 
		223.431,2043.073 275.528,2014.304 217.428,1917.228 	"/>
	
		<line id="XMLID_653_" style="fill:none;stroke:#FFFFFF;stroke-width:16.949;stroke-miterlimit:10;" x1="204.218" y1="1917.746" x2="275.528" y2="2014.304"/>
</g>
<g id="XMLID_647_">
	<g id="XMLID_128_">
		<path id="XMLID_129_" style="fill:#272626;" d="M118.753,1941.171l-34.472,54.165c-0.591,0.928-1.833,1.204-2.761,0.614
			l-8.888-5.656c-0.928-0.591-1.204-1.833-0.613-2.761l34.472-54.165c0.591-0.928,1.833-1.204,2.761-0.613l8.888,5.656
			C119.067,1939,119.343,1940.243,118.753,1941.171z"/>
	</g>
</g>
<g id="XMLID_639_">
	<g id="XMLID_130_">
		<path id="XMLID_131_" style="fill:#272626;" d="M54.025,1916.804l-17.771,27.924c-0.591,0.928-1.833,1.204-2.761,0.614
			l-6.67-4.245c-0.928-0.591-1.204-1.833-0.613-2.761l17.771-27.924c0.591-0.928,1.833-1.204,2.761-0.613l6.67,4.245
			C54.34,1914.633,54.616,1915.876,54.025,1916.804z"/>
	</g>
</g>
<polygon id="XMLID_533_" style="fill:#272626;" points="91.674,1982.3 379.378,2172.984 444.354,2192.601 400.616,2139.309 
	112.911,1948.626 "/>
<rect id="XMLID_529_" x="56.829" y="1917.073" transform="matrix(0.5452 -0.8383 0.8383 0.5452 -1600.1708 940.1486)" style="fill:#272626;" width="19.013" height="55.368"/>
<polygon id="XMLID_519_" style="fill:#5078BB;" points="248.828,2038.708 261.762,2156.146 335.661,2150.624 363.549,2112.807 "/>
<g id="XMLID_240_">
	<path id="XMLID_864_" style="fill:#3C82C5;" d="M512.946,240.255c-39.471,0-71.452-31.981-71.452-71.452
		s31.982-71.452,71.452-71.452s71.452,31.982,71.452,71.452S552.417,240.255,512.946,240.255z M512.946,110.103
		c-32.386,0-58.498,26.314-58.498,58.7c0,32.183,26.112,58.497,58.498,58.497s58.497-26.314,58.497-58.497
		C571.443,136.417,545.332,110.103,512.946,110.103z"/>
	<path id="XMLID_247_" style="fill:#3C82C5;" d="M704.021,185.603c0,31.172-22.266,54.652-51.616,54.652
		c-15.788,0-29.552-6.68-38.863-17.813v66.999c0,3.643-2.834,6.477-6.477,6.477c-3.441,0-6.477-2.834-6.477-6.477V137.227
		c0-3.441,3.037-6.275,6.477-6.275c3.643,0,6.477,2.834,6.477,6.275v11.335c9.311-10.931,23.075-17.61,38.863-17.61
		C681.755,130.952,704.021,154.432,704.021,185.603z M691.268,185.603c0-23.885-16.8-41.9-38.863-41.9
		c-22.265,0-38.863,18.015-38.863,41.9c0,23.682,16.598,41.697,38.863,41.697C674.468,227.301,691.268,209.286,691.268,185.603z"/>
	<path id="XMLID_244_" style="fill:#3C82C5;" d="M770.817,240.255c-29.553,0-51.616-23.48-51.616-54.652
		c0-14.776,4.858-28.338,13.764-38.458c9.311-10.526,22.468-16.193,36.839-16.193c28.945,0,49.794,22.873,49.794,54.652
		c0,3.441-2.834,6.477-6.477,6.477h-80.763c2.834,20.444,18.42,35.22,38.459,35.22c13.561,0,25.504-6.477,32.386-18.217
		c2.024-3.037,5.87-3.846,8.906-2.024c3.036,1.821,4.048,5.87,2.227,8.906C804.822,231.349,789.034,240.255,770.817,240.255z
		 M732.358,179.126h73.881c-2.429-21.051-16.598-35.422-36.435-35.422C749.968,143.704,734.989,158.278,732.358,179.126z"/>
	<path id="XMLID_243_" style="fill:#3C82C5;" d="M925.053,177.507v56.271c0,3.643-2.834,6.477-6.275,6.477
		c-3.643,0-6.477-2.834-6.477-6.477v-56.271c0-19.432-12.752-33.803-30.362-33.803c-18.217,0-32.386,14.979-32.386,33.803v1.012
		c0,0.202,0,0.405,0,0.607v54.652c0,3.643-2.834,6.477-6.477,6.477c-3.441,0-6.275-2.834-6.275-6.477v-96.551
		c0-3.441,2.834-6.275,6.275-6.275c3.643,0,6.477,2.834,6.477,6.275v7.287c8.299-8.501,19.634-13.562,32.386-13.562
		c12.347,0,23.682,4.858,31.577,13.967C921.005,153.419,925.053,164.957,925.053,177.507z"/>
	<path id="XMLID_241_" style="fill:#323333;" d="M943.867,225.035l52.777-135.797c2.108-4.744,5.436-7.116,9.982-7.116
		c4.678,0,8.005,2.372,9.982,7.116l52.975,136.291c0.527,1.319,0.791,2.735,0.791,4.25c0,2.9-1.022,5.371-3.064,7.413
		c-2.043,2.043-4.514,3.064-7.412,3.064c-2.9,0-5.337-1.021-7.313-3.064c-1.055-1.053-1.846-2.174-2.372-3.36l-18.284-46.946
		h-50.603l-18.383,46.946c-0.528,1.186-1.319,2.307-2.372,3.36c-2.043,2.043-4.514,3.064-7.413,3.064
		c-2.9,0-5.354-1.021-7.363-3.064c-2.011-2.042-3.014-4.512-3.014-7.413C942.78,228.197,943.141,226.616,943.867,225.035z
		 M1023.823,165.932l-17.197-44.376l-17.197,44.376H1023.823z"/>
	<path id="XMLID_851_" style="fill:#323333;" d="M1084.214,129.562h4.645V92.4c0-2.832,1.004-5.253,3.015-7.264
		c2.009-2.009,4.463-3.015,7.363-3.015c2.832,0,5.253,1.006,7.264,3.015c2.009,2.011,3.015,4.432,3.015,7.264v37.162h12.354
		c2.832,0,5.238,1.006,7.214,3.015c1.978,2.011,2.966,4.432,2.966,7.264c0,2.9-0.988,5.354-2.966,7.363
		c-1.976,2.011-4.382,3.014-7.214,3.014h-12.354v49.713c0,13.112,6.588,19.668,19.767,19.668c2.832,0,5.238,1.005,7.214,3.014
		c1.978,2.011,2.966,4.432,2.966,7.264c0,2.9-0.988,5.354-2.966,7.363c-1.976,2.011-4.382,3.014-7.214,3.014
		c-26.949,0-40.423-13.441-40.423-40.324v-49.713h-4.645c-2.767,0-5.156-1.004-7.165-3.014c-2.011-2.009-3.015-4.463-3.015-7.363
		c0-2.832,1.004-5.253,3.015-7.264C1079.058,130.567,1081.447,129.562,1084.214,129.562z"/>
	<path id="XMLID_849_" style="fill:#323333;" d="M1159.233,129.562h4.646V92.4c0-2.832,1.004-5.253,3.014-7.264
		c2.009-2.009,4.464-3.015,7.364-3.015c2.832,0,5.253,1.006,7.265,3.015c2.009,2.011,3.014,4.432,3.014,7.264v37.162h12.354
		c2.832,0,5.238,1.006,7.215,3.015c1.977,2.011,2.965,4.432,2.965,7.264c0,2.9-0.988,5.354-2.965,7.363
		c-1.977,2.011-4.383,3.014-7.215,3.014h-12.354v49.713c0,13.112,6.589,19.668,19.767,19.668c2.833,0,5.239,1.005,7.215,3.014
		c1.977,2.011,2.965,4.432,2.965,7.264c0,2.9-0.988,5.354-2.965,7.363c-1.976,2.011-4.382,3.014-7.215,3.014
		c-26.948,0-40.422-13.441-40.422-40.324v-49.713h-4.646c-2.768,0-5.156-1.004-7.165-3.014c-2.011-2.009-3.015-4.463-3.015-7.363
		c0-2.832,1.004-5.253,3.015-7.264C1154.077,130.567,1156.465,129.562,1159.233,129.562z"/>
	<path id="XMLID_846_" style="fill:#323333;" d="M1308.772,229.976V228c-4.941,3.953-10.312,6.985-16.109,9.093
		c-5.799,2.109-11.994,3.163-18.581,3.163c-15.286,0-28.332-5.402-39.138-16.209c-10.807-10.805-16.209-23.851-16.209-39.138
		c0-15.286,5.402-28.331,16.209-39.138c10.805-10.805,23.851-16.209,39.138-16.209c15.154,0,28.2,5.404,39.139,16.209
		c10.805,10.807,16.208,23.853,16.208,39.138v45.068c0,2.834-1.005,5.255-3.015,7.264c-2.01,2.011-4.432,3.014-7.265,3.014
		c-2.9,0-5.354-1.004-7.363-3.014C1309.776,235.232,1308.772,232.81,1308.772,229.976z M1274.081,150.218
		c-4.877,0-9.423,0.924-13.639,2.768c-4.218,1.845-7.874,4.333-10.971,7.462c-3.097,3.13-5.551,6.804-7.363,11.02
		c-1.813,4.218-2.718,8.697-2.718,13.442c0,4.744,0.905,9.225,2.718,13.441c1.812,4.217,4.265,7.891,7.363,11.02
		c3.096,3.13,6.753,5.618,10.971,7.462c4.216,1.846,8.762,2.768,13.639,2.768c4.809,0,9.323-0.922,13.54-2.768
		c4.217-1.844,7.89-4.348,11.02-7.511c3.128-3.163,5.599-6.835,7.412-11.02c1.812-4.183,2.718-8.648,2.718-13.392
		c0-4.744-0.906-9.207-2.718-13.392c-1.813-4.184-4.284-7.857-7.412-11.02c-3.13-3.163-6.804-5.666-11.02-7.511
		C1283.405,151.141,1278.89,150.218,1274.081,150.218z"/>
	<path id="XMLID_844_" style="fill:#323333;" d="M1425.399,208.925c2.965,0,5.419,0.973,7.363,2.916
		c1.943,1.944,2.917,4.398,2.917,7.363c0,2.9-1.087,5.436-3.262,7.61c-10.214,8.961-22.238,13.441-36.074,13.441
		c-15.286,0-28.333-5.402-39.139-16.209c-10.806-10.805-16.208-23.851-16.208-39.138c0-15.286,5.402-28.331,16.208-39.138
		c10.805-10.805,23.852-16.209,39.139-16.209c13.902,0,25.927,4.482,36.074,13.441c2.372,2.11,3.557,4.712,3.557,7.808
		c0,2.965-0.973,5.436-2.916,7.412c-1.944,1.977-4.398,2.965-7.363,2.965c-2.505,0-4.744-0.791-6.721-2.372
		c-3.36-2.832-6.886-4.974-10.575-6.424c-3.692-1.449-7.709-2.174-12.058-2.174c-4.811,0-9.324,0.907-13.54,2.718
		c-4.218,1.813-7.907,4.284-11.07,7.412c-3.163,3.13-5.65,6.804-7.462,11.02c-1.813,4.217-2.718,8.731-2.718,13.54
		c0,4.81,0.905,9.324,2.718,13.54c1.812,4.218,4.299,7.891,7.462,11.02c3.162,3.13,6.852,5.601,11.07,7.412
		c4.216,1.813,8.729,2.718,13.54,2.718c4.349,0,8.366-0.707,12.058-2.125c3.689-1.416,7.181-3.541,10.476-6.375
		C1420.72,209.716,1422.894,208.991,1425.399,208.925z"/>
	<path id="XMLID_842_" style="fill:#323333;" d="M1447.64,229.878V92.499c0-2.899,1.004-5.353,3.015-7.363
		c2.009-2.009,4.463-3.015,7.363-3.015c2.833,0,5.254,1.006,7.264,3.015c2.009,2.011,3.015,4.464,3.015,7.363v77.09l59.102-38.446
		c1.646-1.053,3.492-1.581,5.535-1.581c1.448,0,2.8,0.264,4.052,0.791c1.251,0.528,2.338,1.27,3.261,2.224
		c0.922,0.955,1.664,2.06,2.224,3.311c0.559,1.252,0.84,2.569,0.84,3.953c0,3.691-1.319,6.424-3.953,8.203l-41.411,26.882
		l42.499,47.836c1.91,2.109,2.866,4.514,2.866,7.215c0,1.384-0.281,2.703-0.84,3.953c-0.56,1.253-1.302,2.357-2.224,3.311
		c-0.923,0.955-2.01,1.697-3.261,2.224c-1.253,0.528-2.604,0.791-4.052,0.791c-2.768,0-5.074-0.889-6.918-2.669l-45.661-51.295
		l-12.058,7.907v35.679c0,2.834-1.006,5.272-3.015,7.314c-2.01,2.043-4.432,3.064-7.264,3.064c-2.9,0-5.354-1.021-7.363-3.064
		C1448.643,235.15,1447.64,232.712,1447.64,229.878z"/>
</g>
<path id="XMLID_840_" style="fill:#3C82C5;" d="M250.726,35.794L124.889,79.559c-6.217,1.754-10.593,7.294-10.844,13.749
	c-1.592,40.945,2.637,186.179,136.681,242.071c0,0,140.167-45.341,139.659-241.4c-0.016-5.983-4.013-11.242-9.767-12.883
	L250.726,35.794z"/>
<g id="XMLID_835_">
	<polyline id="XMLID_837_" style="fill:none;stroke:#FFFFFF;stroke-width:16.8782;stroke-miterlimit:10;" points="264.954,280.724 
		215.42,175.284 267.3,146.635 210.821,51.461 	"/>
	
		<line id="XMLID_836_" style="fill:none;stroke:#FFFFFF;stroke-width:16.8782;stroke-linecap:round;stroke-miterlimit:10;" x1="204.258" y1="61.271" x2="267.3" y2="146.635"/>
</g>
<g id="XMLID_830_">
	<g id="XMLID_262_">
		<path id="XMLID_264_" style="fill:#272626;" d="M111.175,73.814l-34.319,53.925c-0.591,0.928-1.833,1.204-2.761,0.613
			l-8.836-5.624c-0.928-0.591-1.204-1.833-0.613-2.761l34.319-53.925c0.591-0.928,1.833-1.204,2.761-0.613l8.836,5.624
			C111.489,71.644,111.765,72.886,111.175,73.814z"/>
	</g>
</g>
<g id="XMLID_825_">
	<g id="XMLID_261_">
		<path id="XMLID_263_" style="fill:#272626;" d="M46.717,49.549L29.029,77.342c-0.591,0.928-1.833,1.204-2.761,0.613l-6.628-4.218
			c-0.928-0.591-1.204-1.833-0.613-2.761l17.688-27.793c0.591-0.928,1.833-1.204,2.761-0.613l6.628,4.218
			C47.032,47.379,47.308,48.621,46.717,49.549z"/>
	</g>
</g>
<polygon id="XMLID_822_" style="fill:#272626;" points="84.213,114.765 370.716,304.652 435.421,324.187 391.865,271.118 
	105.362,81.231 "/>
<rect id="XMLID_819_" x="49.514" y="49.81" transform="matrix(0.5452 -0.8383 0.8383 0.5452 -38.0423 84.6393)" style="fill:#272626;" width="18.934" height="55.137"/>
<polygon id="XMLID_818_" style="fill:#3C82C5;" points="240.711,170.937 253.591,287.885 327.182,282.385 354.953,244.726 "/>
<polygon id="XMLID_817_" style="fill:#FFFFFF;" points="200.614,70.568 190.264,56.822 218.059,47.156 222.18,54.106 "/>
</svg>
