<?xml version="1.0" encoding="iso-8859-1"?>
<!-- Generator: Adobe Illustrator 19.0.0, SVG Export Plug-In . SVG Version: 6.00 Build 0)  -->
<svg version="1.1" id="&#x56FE;&#x5C42;_1" xmlns="http://www.w3.org/2000/svg" xmlns:xlink="http://www.w3.org/1999/xlink" x="0px"
	 y="0px" viewBox="0 0 1586.189 364.541" style="enable-background:new 0 0 1586.189 364.541;" xml:space="preserve">
<g id="XMLID_126_">
	<path id="XMLID_132_" style="fill:#5078BB;" d="M522.204,2108.317c-39.636,0-71.752-32.115-71.752-71.752
		c0-39.636,32.116-71.752,71.752-71.752s71.751,32.116,71.751,71.752C593.956,2076.201,561.84,2108.317,522.204,2108.317z
		 M522.204,1977.619c-32.522,0-58.743,26.424-58.743,58.946c0,32.318,26.221,58.743,58.743,58.743s58.743-26.424,58.743-58.743
		C580.947,2004.043,554.726,1977.619,522.204,1977.619z"/>
	<path id="XMLID_135_" style="fill:#5078BB;" d="M714.08,2053.436c0,31.302-22.359,54.881-51.832,54.881
		c-15.854,0-29.676-6.708-39.026-17.887v67.28c0,3.659-2.846,6.504-6.504,6.504c-3.455,0-6.504-2.846-6.504-6.504v-152.853
		c0-3.456,3.049-6.301,6.504-6.301c3.659,0,6.504,2.846,6.504,6.301v11.383c9.35-10.977,23.172-17.684,39.026-17.684
		C691.721,1998.555,714.08,2022.133,714.08,2053.436z M701.274,2053.436c0-23.985-16.871-42.075-39.026-42.075
		c-22.358,0-39.026,18.09-39.026,42.075c0,23.782,16.668,41.872,39.026,41.872C684.404,2095.308,701.274,2077.218,701.274,2053.436z
		"/>
	<path id="XMLID_138_" style="fill:#5078BB;" d="M781.156,2108.317c-29.677,0-51.832-23.579-51.832-54.881
		c0-14.838,4.878-28.457,13.822-38.62c9.35-10.57,22.562-16.261,36.994-16.261c29.066,0,50.002,22.969,50.002,54.881
		c0,3.456-2.846,6.504-6.504,6.504h-81.102c2.846,20.529,18.497,35.368,38.62,35.368c13.618,0,25.611-6.504,32.522-18.293
		c2.032-3.049,5.895-3.862,8.943-2.033c3.049,1.829,4.065,5.895,2.236,8.943C815.304,2099.373,799.45,2108.317,781.156,2108.317z
		 M742.536,2046.931h74.191c-2.439-21.139-16.667-35.571-36.587-35.571C760.22,2011.36,745.179,2025.995,742.536,2046.931z"/>
	<path id="XMLID_141_" style="fill:#5078BB;" d="M936.04,2045.305v56.507c0,3.659-2.846,6.504-6.301,6.504
		c-3.659,0-6.504-2.846-6.504-6.504v-56.507c0-19.513-12.805-33.945-30.489-33.945c-18.293,0-32.522,15.042-32.522,33.945v1.016
		c0,0.203,0,0.407,0,0.61v54.881c0,3.659-2.846,6.504-6.504,6.504c-3.456,0-6.301-2.846-6.301-6.504v-96.956
		c0-3.456,2.846-6.301,6.301-6.301c3.659,0,6.504,2.846,6.504,6.301v7.317c8.334-8.537,19.716-13.619,32.522-13.619
		c12.399,0,23.782,4.878,31.709,14.025C931.974,2021.117,936.04,2032.703,936.04,2045.305z"/>
	<path id="XMLID_143_" style="fill:#272626;" d="M954.932,2093.032l52.999-136.367c2.117-4.764,5.458-7.146,10.024-7.146
		c4.697,0,8.039,2.382,10.024,7.146l53.197,136.863c0.529,1.325,0.794,2.747,0.794,4.268c0,2.913-1.026,5.394-3.077,7.444
		c-2.052,2.052-4.533,3.077-7.443,3.077c-2.913,0-5.359-1.025-7.344-3.077c-1.06-1.058-1.854-2.184-2.382-3.375l-18.361-47.143
		h-50.815l-18.46,47.143c-0.53,1.191-1.324,2.317-2.382,3.375c-2.052,2.052-4.533,3.077-7.444,3.077
		c-2.912,0-5.376-1.025-7.394-3.077c-2.019-2.05-3.027-4.531-3.027-7.444C953.84,2096.208,954.203,2094.62,954.932,2093.032z
		 M1035.224,2033.682l-17.269-44.562l-17.269,44.562H1035.224z"/>
	<path id="XMLID_146_" style="fill:#272626;" d="M1095.868,1997.159h4.665v-37.317c0-2.844,1.008-5.275,3.027-7.294
		c2.018-2.018,4.481-3.027,7.394-3.027c2.844,0,5.275,1.01,7.294,3.027c2.018,2.019,3.027,4.451,3.027,7.294v37.317h12.406
		c2.844,0,5.26,1.01,7.244,3.027c1.986,2.019,2.979,4.45,2.979,7.294c0,2.913-0.992,5.376-2.979,7.394
		c-1.984,2.019-4.4,3.027-7.244,3.027h-12.406v49.922c0,13.167,6.615,19.75,19.85,19.75c2.844,0,5.26,1.009,7.244,3.027
		c1.986,2.019,2.979,4.451,2.979,7.295c0,2.912-0.992,5.376-2.979,7.394c-1.984,2.019-4.4,3.027-7.244,3.027
		c-27.062,0-40.593-13.498-40.593-40.493v-49.922h-4.665c-2.779,0-5.178-1.008-7.195-3.027c-2.019-2.018-3.027-4.481-3.027-7.394
		c0-2.844,1.008-5.275,3.027-7.294C1090.69,1998.169,1093.089,1997.159,1095.868,1997.159z"/>
	<path id="XMLID_148_" style="fill:#272626;" d="M1171.201,1997.159h4.665v-37.317c0-2.844,1.008-5.275,3.026-7.294
		c2.018-2.018,4.482-3.027,7.395-3.027c2.844,0,5.275,1.01,7.295,3.027c2.018,2.019,3.026,4.451,3.026,7.294v37.317h12.406
		c2.844,0,5.26,1.01,7.245,3.027c1.985,2.019,2.978,4.45,2.978,7.294c0,2.913-0.992,5.376-2.978,7.394
		c-1.985,2.019-4.401,3.027-7.245,3.027h-12.406v49.922c0,13.167,6.616,19.75,19.85,19.75c2.845,0,5.261,1.009,7.245,3.027
		c1.985,2.019,2.978,4.451,2.978,7.295c0,2.912-0.992,5.376-2.978,7.394c-1.984,2.019-4.4,3.027-7.245,3.027
		c-27.062,0-40.592-13.498-40.592-40.493v-49.922h-4.665c-2.779,0-5.178-1.008-7.195-3.027c-2.02-2.018-3.027-4.481-3.027-7.394
		c0-2.844,1.008-5.275,3.027-7.294C1166.023,1998.169,1168.422,1997.159,1171.201,1997.159z"/>
	<path id="XMLID_150_" style="fill:#272626;" d="M1321.367,2097.995v-1.985c-4.962,3.97-10.355,7.014-16.177,9.131
		c-5.823,2.118-12.044,3.176-18.659,3.176c-15.351,0-28.451-5.424-39.302-16.277c-10.853-10.851-16.277-23.951-16.277-39.302
		c0-15.35,5.425-28.45,16.277-39.302c10.851-10.851,23.951-16.277,39.302-16.277c15.218,0,28.318,5.426,39.303,16.277
		c10.851,10.852,16.276,23.953,16.276,39.302v45.257c0,2.846-1.01,5.277-3.027,7.295c-2.019,2.019-4.45,3.027-7.295,3.027
		c-2.912,0-5.376-1.008-7.394-3.027C1322.375,2103.272,1321.367,2100.841,1321.367,2097.995z M1286.531,2017.901
		c-4.897,0-9.463,0.928-13.696,2.779c-4.235,1.853-7.907,4.351-11.017,7.493c-3.11,3.143-5.574,6.833-7.394,11.066
		c-1.82,4.235-2.729,8.734-2.729,13.498c0,4.764,0.909,9.264,2.729,13.498c1.819,4.235,4.283,7.924,7.394,11.066
		c3.109,3.144,6.781,5.642,11.017,7.493c4.233,1.854,8.799,2.779,13.696,2.779c4.829,0,9.362-0.926,13.597-2.779
		c4.234-1.852,7.923-4.367,11.066-7.542c3.142-3.176,5.623-6.864,7.443-11.066c1.819-4.201,2.729-8.684,2.729-13.448
		c0-4.764-0.91-9.246-2.729-13.448c-1.82-4.201-4.302-7.89-7.443-11.066c-3.144-3.176-6.832-5.689-11.066-7.542
		C1295.894,2018.829,1291.36,2017.901,1286.531,2017.901z"/>
	<path id="XMLID_153_" style="fill:#272626;" d="M1438.483,2076.855c2.978,0,5.441,0.977,7.394,2.928
		c1.951,1.952,2.929,4.417,2.929,7.394c0,2.912-1.092,5.458-3.275,7.642c-10.257,8.999-22.331,13.498-36.226,13.498
		c-15.351,0-28.452-5.424-39.303-16.277c-10.852-10.851-16.276-23.951-16.276-39.302c0-15.35,5.425-28.45,16.276-39.302
		c10.851-10.851,23.952-16.277,39.303-16.277c13.96,0,26.035,4.5,36.226,13.498c2.382,2.119,3.572,4.731,3.572,7.841
		c0,2.978-0.977,5.458-2.928,7.443c-1.952,1.985-4.416,2.978-7.394,2.978c-2.516,0-4.764-0.794-6.749-2.382
		c-3.374-2.844-6.915-4.995-10.619-6.451c-3.707-1.455-7.741-2.184-12.108-2.184c-4.831,0-9.363,0.911-13.597,2.729
		c-4.235,1.821-7.94,4.302-11.116,7.443c-3.176,3.144-5.674,6.833-7.493,11.066c-1.82,4.235-2.729,8.768-2.729,13.597
		c0,4.831,0.909,9.363,2.729,13.597c1.819,4.235,4.317,7.924,7.493,11.066c3.176,3.143,6.881,5.625,11.116,7.443
		c4.233,1.821,8.766,2.729,13.597,2.729c4.367,0,8.401-0.71,12.108-2.134c3.704-1.422,7.211-3.556,10.52-6.402
		C1433.785,2077.649,1435.968,2076.922,1438.483,2076.855z"/>
	<path id="XMLID_155_" style="fill:#272626;" d="M1460.817,2097.896v-137.955c0-2.911,1.008-5.375,3.027-7.394
		c2.018-2.018,4.481-3.027,7.394-3.027c2.845,0,5.276,1.01,7.295,3.027c2.018,2.019,3.027,4.483,3.027,7.394v77.413l59.35-38.607
		c1.653-1.058,3.507-1.588,5.559-1.588c1.454,0,2.812,0.265,4.069,0.794c1.256,0.53,2.348,1.275,3.274,2.233
		c0.926,0.959,1.671,2.068,2.233,3.325c0.562,1.257,0.844,2.58,0.844,3.97c0,3.707-1.324,6.451-3.97,8.238l-41.585,26.995
		l42.677,48.036c1.918,2.118,2.878,4.533,2.878,7.245c0,1.39-0.282,2.714-0.844,3.97c-0.562,1.258-1.308,2.367-2.233,3.325
		c-0.927,0.959-2.019,1.704-3.274,2.233c-1.258,0.53-2.615,0.794-4.069,0.794c-2.779,0-5.096-0.893-6.947-2.68l-45.853-51.51
		l-12.108,7.94v35.829c0,2.846-1.01,5.294-3.027,7.344c-2.019,2.052-4.45,3.077-7.295,3.077c-2.912,0-5.376-1.025-7.394-3.077
		C1461.825,2103.19,1460.817,2100.741,1460.817,2097.896z"/>
</g>
<path id="XMLID_657_" style="fill:#5078BB;" d="M260.37,1902.431l-126.364,43.948c-6.243,1.762-10.638,7.325-10.89,13.807
	c-1.599,41.117,2.648,186.96,137.254,243.087c0,0,140.755-45.531,140.244-242.412c-0.016-6.008-4.03-11.289-9.808-12.937
	L260.37,1902.431z"/>
<g id="XMLID_652_">
	<polyline id="XMLID_654_" style="fill:none;stroke:#FFFFFF;stroke-width:16.949;stroke-miterlimit:10;" points="273.172,2148.955 
		223.431,2043.073 275.528,2014.304 217.428,1917.228 	"/>
	
		<line id="XMLID_653_" style="fill:none;stroke:#FFFFFF;stroke-width:16.949;stroke-miterlimit:10;" x1="204.218" y1="1917.746" x2="275.528" y2="2014.304"/>
</g>
<g id="XMLID_647_">
	<g id="XMLID_128_">
		<path id="XMLID_129_" style="fill:#272626;" d="M118.753,1941.171l-34.472,54.165c-0.591,0.928-1.833,1.204-2.761,0.614
			l-8.888-5.656c-0.928-0.591-1.204-1.833-0.613-2.761l34.472-54.165c0.591-0.928,1.833-1.204,2.761-0.613l8.888,5.656
			C119.067,1939,119.343,1940.243,118.753,1941.171z"/>
	</g>
</g>
<g id="XMLID_639_">
	<g id="XMLID_130_">
		<path id="XMLID_131_" style="fill:#272626;" d="M54.025,1916.804l-17.771,27.924c-0.591,0.928-1.833,1.204-2.761,0.614
			l-6.67-4.245c-0.928-0.591-1.204-1.833-0.613-2.761l17.771-27.924c0.591-0.928,1.833-1.204,2.761-0.613l6.67,4.245
			C54.34,1914.633,54.616,1915.876,54.025,1916.804z"/>
	</g>
</g>
<polygon id="XMLID_533_" style="fill:#272626;" points="91.674,1982.3 379.378,2172.984 444.354,2192.601 400.616,2139.309 
	112.911,1948.626 "/>
<rect id="XMLID_529_" x="56.829" y="1917.073" transform="matrix(0.5452 -0.8383 0.8383 0.5452 -1600.1708 940.1486)" style="fill:#272626;" width="19.013" height="55.368"/>
<polygon id="XMLID_519_" style="fill:#5078BB;" points="248.828,2038.708 261.762,2156.146 335.661,2150.624 363.549,2112.807 "/>
<g id="XMLID_904_">
	<path id="XMLID_927_" style="fill:#3990CF;" d="M541.215,245.046c-39.137,0-70.848-31.711-70.848-70.847
		s31.711-70.848,70.848-70.848s70.847,31.711,70.847,70.848S580.352,245.046,541.215,245.046z M541.215,115.995
		c-32.112,0-58.003,26.091-58.003,58.204c0,31.911,25.891,58.002,58.003,58.002s58.003-26.091,58.003-58.002
		C599.218,142.086,573.327,115.995,541.215,115.995z"/>
	<path id="XMLID_924_" style="fill:#3990CF;" d="M730.673,190.856c0,30.908-22.077,54.189-51.179,54.189
		c-15.655,0-29.302-6.623-38.535-17.662v66.432c0,3.613-2.81,6.422-6.422,6.422c-3.412,0-6.422-2.81-6.422-6.422V142.889
		c0-3.412,3.011-6.222,6.422-6.222c3.613,0,6.422,2.81,6.422,6.222v11.239c9.232-10.838,22.88-17.461,38.535-17.461
		C708.596,136.667,730.673,159.948,730.673,190.856z M718.029,190.856c0-23.683-16.658-41.545-38.535-41.545
		c-22.077,0-38.535,17.862-38.535,41.545c0,23.482,16.458,41.344,38.535,41.344C701.371,232.201,718.029,214.338,718.029,190.856z"
		/>
	<path id="XMLID_921_" style="fill:#3990CF;" d="M796.904,245.046c-29.303,0-51.179-23.282-51.179-54.189
		c0-14.651,4.817-28.098,13.648-38.133c9.232-10.437,22.278-16.056,36.527-16.056c28.7,0,49.372,22.679,49.372,54.189
		c0,3.412-2.81,6.422-6.422,6.422h-80.08c2.81,20.271,18.264,34.922,38.133,34.922c13.447,0,25.288-6.422,32.112-18.063
		c2.007-3.011,5.82-3.814,8.831-2.007c3.01,1.806,4.014,5.82,2.208,8.831C830.622,236.215,814.967,245.046,796.904,245.046z
		 M758.771,184.434h73.256c-2.409-20.873-16.457-35.123-36.126-35.123C776.232,149.311,761.38,163.762,758.771,184.434z"/>
	<path id="XMLID_919_" style="fill:#3990CF;" d="M949.836,182.828v55.795c0,3.613-2.81,6.422-6.222,6.422
		c-3.613,0-6.422-2.81-6.422-6.422v-55.795c0-19.267-12.644-33.517-30.105-33.517c-18.063,0-32.112,14.852-32.112,33.517v1.003
		c0,0.201,0,0.402,0,0.602v54.189c0,3.613-2.81,6.422-6.422,6.422c-3.412,0-6.222-2.81-6.222-6.422v-95.734
		c0-3.412,2.81-6.222,6.222-6.222c3.613,0,6.422,2.81,6.422,6.222v7.225c8.229-8.43,19.468-13.447,32.112-13.447
		c12.243,0,23.482,4.817,31.309,13.849C945.822,158.945,949.836,170.385,949.836,182.828z"/>
	<path id="XMLID_916_" style="fill:#323333;" d="M968.49,229.954l52.331-134.648c2.09-4.704,5.39-7.056,9.898-7.056
		c4.638,0,7.938,2.352,9.898,7.056l52.526,135.138c0.522,1.308,0.784,2.712,0.784,4.214c0,2.876-1.013,5.326-3.038,7.35
		c-2.026,2.026-4.476,3.038-7.35,3.038c-2.876,0-5.292-1.012-7.252-3.038c-1.046-1.044-1.83-2.156-2.352-3.332l-18.129-46.549
		h-50.175l-18.227,46.549c-0.524,1.176-1.308,2.288-2.352,3.332c-2.026,2.026-4.476,3.038-7.35,3.038
		c-2.875,0-5.309-1.012-7.301-3.038c-1.994-2.024-2.989-4.474-2.989-7.35C967.412,233.09,967.771,231.522,968.49,229.954z
		 M1047.77,171.352l-17.052-44.001l-17.051,44.001H1047.77z"/>
	<path id="XMLID_914_" style="fill:#323333;" d="M1107.65,135.288h4.606V98.441c0-2.808,0.996-5.209,2.989-7.203
		c1.992-1.992,4.425-2.989,7.301-2.989c2.808,0,5.209,0.997,7.203,2.989c1.992,1.994,2.989,4.395,2.989,7.203v36.847h12.25
		c2.808,0,5.193,0.997,7.153,2.989c1.961,1.994,2.941,4.394,2.941,7.203c0,2.876-0.98,5.309-2.941,7.301
		c-1.959,1.994-4.345,2.989-7.153,2.989h-12.25v49.293c0,13.002,6.532,19.502,19.599,19.502c2.808,0,5.193,0.997,7.153,2.989
		c1.961,1.994,2.941,4.395,2.941,7.203c0,2.875-0.98,5.309-2.941,7.301c-1.959,1.994-4.345,2.989-7.153,2.989
		c-26.722,0-40.081-13.327-40.081-39.983V155.77h-4.606c-2.744,0-5.113-0.995-7.105-2.989c-1.994-1.992-2.989-4.425-2.989-7.301
		c0-2.808,0.996-5.209,2.989-7.203C1102.538,136.286,1104.906,135.288,1107.65,135.288z"/>
	<path id="XMLID_912_" style="fill:#323333;" d="M1182.034,135.288h4.606V98.441c0-2.808,0.995-5.209,2.988-7.203
		c1.992-1.992,4.426-2.989,7.301-2.989c2.808,0,5.209,0.997,7.203,2.989c1.992,1.994,2.988,4.395,2.988,7.203v36.847h12.25
		c2.808,0,5.193,0.997,7.154,2.989c1.96,1.994,2.94,4.394,2.94,7.203c0,2.876-0.98,5.309-2.94,7.301
		c-1.96,1.994-4.346,2.989-7.154,2.989h-12.25v49.293c0,13.002,6.533,19.502,19.599,19.502c2.809,0,5.194,0.997,7.154,2.989
		c1.96,1.994,2.94,4.395,2.94,7.203c0,2.875-0.98,5.309-2.94,7.301c-1.959,1.994-4.345,2.989-7.154,2.989
		c-26.721,0-40.08-13.327-40.08-39.983V155.77h-4.606c-2.744,0-5.112-0.995-7.105-2.989c-1.994-1.992-2.989-4.425-2.989-7.301
		c0-2.808,0.995-5.209,2.989-7.203C1176.922,136.286,1179.29,135.288,1182.034,135.288z"/>
	<path id="XMLID_909_" style="fill:#323333;" d="M1330.308,234.854v-1.96c-4.899,3.92-10.225,6.926-15.973,9.016
		c-5.75,2.091-11.892,3.136-18.424,3.136c-15.157,0-28.093-5.356-38.807-16.072c-10.716-10.714-16.072-23.649-16.072-38.807
		c0-15.156,5.356-28.092,16.072-38.807c10.714-10.714,23.649-16.072,38.807-16.072c15.026,0,27.962,5.358,38.807,16.072
		c10.714,10.715,16.071,23.651,16.071,38.807v44.687c0,2.81-0.997,5.211-2.989,7.203c-1.993,1.994-4.394,2.989-7.203,2.989
		c-2.875,0-5.308-0.995-7.3-2.989C1331.303,240.065,1330.308,237.664,1330.308,234.854z M1295.911,155.77
		c-4.836,0-9.344,0.916-13.524,2.744c-4.182,1.83-7.808,4.296-10.878,7.399c-3.071,3.103-5.504,6.746-7.3,10.926
		c-1.797,4.182-2.695,8.624-2.695,13.328c0,4.704,0.898,9.147,2.695,13.327c1.796,4.182,4.229,7.824,7.3,10.926
		c3.07,3.104,6.696,5.571,10.878,7.399c4.18,1.83,8.688,2.744,13.524,2.744c4.768,0,9.244-0.914,13.425-2.744
		c4.181-1.828,7.823-4.312,10.927-7.447c3.102-3.136,5.552-6.777,7.349-10.927c1.796-4.148,2.695-8.575,2.695-13.278
		c0-4.704-0.899-9.129-2.695-13.279c-1.797-4.148-4.248-7.791-7.349-10.927c-3.104-3.136-6.746-5.618-10.927-7.447
		C1305.156,156.686,1300.679,155.77,1295.911,155.77z"/>
	<path id="XMLID_907_" style="fill:#323333;" d="M1445.949,213.981c2.94,0,5.373,0.965,7.3,2.891
		c1.927,1.928,2.892,4.361,2.892,7.301c0,2.875-1.078,5.39-3.234,7.546c-10.128,8.886-22.05,13.327-35.769,13.327
		c-15.157,0-28.094-5.356-38.807-16.072c-10.715-10.714-16.071-23.649-16.071-38.807c0-15.156,5.356-28.092,16.071-38.807
		c10.714-10.714,23.65-16.072,38.807-16.072c13.784,0,25.707,4.444,35.769,13.327c2.352,2.092,3.527,4.672,3.527,7.742
		c0,2.94-0.964,5.39-2.891,7.35c-1.927,1.96-4.36,2.94-7.3,2.94c-2.484,0-4.704-0.784-6.664-2.352
		c-3.332-2.808-6.828-4.932-10.485-6.37c-3.66-1.436-7.644-2.156-11.956-2.156c-4.77,0-9.245,0.899-13.425,2.695
		c-4.182,1.798-7.84,4.248-10.976,7.35c-3.136,3.104-5.602,6.747-7.399,10.927c-1.797,4.182-2.695,8.658-2.695,13.426
		c0,4.77,0.898,9.245,2.695,13.425c1.796,4.182,4.263,7.824,7.399,10.927c3.136,3.103,6.794,5.554,10.976,7.35
		c4.18,1.798,8.655,2.695,13.425,2.695c4.312,0,8.296-0.701,11.956-2.107c3.657-1.404,7.12-3.511,10.387-6.321
		C1441.31,214.764,1443.465,214.046,1445.949,213.981z"/>
	<path id="XMLID_905_" style="fill:#323333;" d="M1468.001,234.756V98.54c0-2.874,0.995-5.307,2.989-7.301
		c1.992-1.992,4.425-2.989,7.3-2.989c2.809,0,5.21,0.997,7.203,2.989c1.992,1.994,2.989,4.426,2.989,7.301v76.438l58.602-38.121
		c1.633-1.044,3.463-1.568,5.489-1.568c1.436,0,2.776,0.262,4.018,0.784c1.24,0.524,2.318,1.259,3.233,2.205
		c0.914,0.947,1.65,2.042,2.205,3.283c0.554,1.241,0.833,2.548,0.833,3.92c0,3.66-1.308,6.37-3.92,8.134l-41.061,26.655
		l42.139,47.431c1.894,2.091,2.842,4.476,2.842,7.154c0,1.372-0.279,2.68-0.833,3.92c-0.555,1.242-1.291,2.337-2.205,3.283
		c-0.915,0.947-1.993,1.683-3.233,2.205c-1.242,0.524-2.582,0.784-4.018,0.784c-2.744,0-5.031-0.882-6.86-2.646l-45.275-50.861
		l-11.956,7.84v35.377c0,2.81-0.997,5.227-2.989,7.252c-1.993,2.026-4.394,3.038-7.203,3.038c-2.875,0-5.308-1.012-7.3-3.038
		C1468.996,239.983,1468.001,237.566,1468.001,234.756z"/>
</g>
<path id="XMLID_903_" style="fill:#3990CF;" d="M281.213,42.315L156.441,85.709c-6.164,1.74-10.504,7.233-10.752,13.633
	c-1.579,40.599,2.615,184.604,135.525,240.023c0,0,138.982-44.957,138.477-239.357c-0.015-5.933-3.979-11.146-9.684-12.774
	L281.213,42.315z"/>
<g id="XMLID_898_">
	<polyline id="XMLID_900_" style="fill:none;stroke:#FFFFFF;stroke-width:16.7354;stroke-miterlimit:10;" points="295.321,285.172 
		246.207,180.624 297.648,152.217 241.646,57.849 	"/>
	
		<line id="XMLID_899_" style="fill:none;stroke:#FFFFFF;stroke-width:16.7354;stroke-linecap:round;stroke-miterlimit:10;" x1="235.138" y1="67.576" x2="297.648" y2="152.217"/>
</g>
<g id="XMLID_893_">
	<g id="XMLID_258_">
		<path id="XMLID_259_" style="fill:#272626;" d="M142.834,80.027l-34.01,53.44c-0.591,0.928-1.833,1.204-2.761,0.613l-8.733-5.558
			c-0.928-0.591-1.204-1.833-0.613-2.761l34.01-53.44c0.591-0.928,1.833-1.204,2.761-0.613l8.733,5.558
			C143.149,77.856,143.425,79.099,142.834,80.027z"/>
	</g>
</g>
<g id="XMLID_888_">
	<g id="XMLID_256_">
		<path id="XMLID_257_" style="fill:#272626;" d="M78.922,55.967l-17.52,27.529c-0.591,0.928-1.833,1.204-2.761,0.613l-6.544-4.165
			c-0.928-0.591-1.204-1.833-0.613-2.761l17.52-27.529c0.591-0.928,1.833-1.204,2.761-0.613l6.544,4.165
			C79.236,53.797,79.512,55.039,78.922,55.967z"/>
	</g>
</g>
<polygon id="XMLID_885_" style="fill:#272626;" points="116.11,120.617 400.189,308.898 464.346,328.267 421.159,275.648 
	137.08,87.367 "/>
<rect id="XMLID_882_" x="81.704" y="56.212" transform="matrix(0.5452 -0.8383 0.8383 0.5452 -28.6089 114.3635)" style="fill:#272626;" width="18.774" height="54.67"/>
<polygon id="XMLID_881_" style="fill:#3990CF;" points="271.284,176.314 284.054,292.273 357.023,286.819 384.559,249.479 "/>
<polygon id="XMLID_880_" style="fill:#FFFFFF;" points="231.526,76.794 221.263,63.165 248.823,53.58 252.909,60.471 "/>
</svg>
