<?xml version="1.0" encoding="iso-8859-1"?>
<!-- Generator: Adobe Illustrator 19.0.0, SVG Export Plug-In . SVG Version: 6.00 Build 0)  -->
<svg version="1.1" id="&#x56FE;&#x5C42;_1" xmlns="http://www.w3.org/2000/svg" xmlns:xlink="http://www.w3.org/1999/xlink" x="0px"
	 y="0px" viewBox="0 0 1586.189 364.541" style="enable-background:new 0 0 1586.189 364.541;" xml:space="preserve">
<g id="XMLID_126_">
	<path id="XMLID_132_" style="fill:#5078BB;" d="M522.204,2108.317c-39.636,0-71.752-32.115-71.752-71.752
		c0-39.636,32.116-71.752,71.752-71.752s71.751,32.116,71.751,71.752C593.956,2076.201,561.84,2108.317,522.204,2108.317z
		 M522.204,1977.619c-32.522,0-58.743,26.424-58.743,58.946c0,32.318,26.221,58.743,58.743,58.743s58.743-26.424,58.743-58.743
		C580.947,2004.043,554.726,1977.619,522.204,1977.619z"/>
	<path id="XMLID_135_" style="fill:#5078BB;" d="M714.08,2053.436c0,31.302-22.359,54.881-51.832,54.881
		c-15.854,0-29.676-6.708-39.026-17.887v67.28c0,3.659-2.846,6.504-6.504,6.504c-3.455,0-6.504-2.846-6.504-6.504v-152.853
		c0-3.456,3.049-6.301,6.504-6.301c3.659,0,6.504,2.846,6.504,6.301v11.383c9.35-10.977,23.172-17.684,39.026-17.684
		C691.721,1998.555,714.08,2022.133,714.08,2053.436z M701.274,2053.436c0-23.985-16.871-42.075-39.026-42.075
		c-22.358,0-39.026,18.09-39.026,42.075c0,23.782,16.668,41.872,39.026,41.872C684.404,2095.308,701.274,2077.218,701.274,2053.436z
		"/>
	<path id="XMLID_138_" style="fill:#5078BB;" d="M781.156,2108.317c-29.677,0-51.832-23.579-51.832-54.881
		c0-14.838,4.878-28.457,13.822-38.62c9.35-10.57,22.562-16.261,36.994-16.261c29.066,0,50.002,22.969,50.002,54.881
		c0,3.456-2.846,6.504-6.504,6.504h-81.102c2.846,20.529,18.497,35.368,38.62,35.368c13.618,0,25.611-6.504,32.522-18.293
		c2.032-3.049,5.895-3.862,8.943-2.033c3.049,1.829,4.065,5.895,2.236,8.943C815.304,2099.373,799.45,2108.317,781.156,2108.317z
		 M742.536,2046.931h74.191c-2.439-21.139-16.667-35.571-36.587-35.571C760.22,2011.36,745.179,2025.995,742.536,2046.931z"/>
	<path id="XMLID_141_" style="fill:#5078BB;" d="M936.04,2045.305v56.507c0,3.659-2.846,6.504-6.301,6.504
		c-3.659,0-6.504-2.846-6.504-6.504v-56.507c0-19.513-12.805-33.945-30.489-33.945c-18.293,0-32.522,15.042-32.522,33.945v1.016
		c0,0.203,0,0.407,0,0.61v54.881c0,3.659-2.846,6.504-6.504,6.504c-3.456,0-6.301-2.846-6.301-6.504v-96.956
		c0-3.456,2.846-6.301,6.301-6.301c3.659,0,6.504,2.846,6.504,6.301v7.317c8.334-8.537,19.716-13.619,32.522-13.619
		c12.399,0,23.782,4.878,31.709,14.025C931.974,2021.117,936.04,2032.703,936.04,2045.305z"/>
	<path id="XMLID_143_" style="fill:#272626;" d="M954.932,2093.032l52.999-136.367c2.117-4.764,5.458-7.146,10.024-7.146
		c4.697,0,8.039,2.382,10.024,7.146l53.197,136.863c0.529,1.325,0.794,2.747,0.794,4.268c0,2.913-1.026,5.394-3.077,7.444
		c-2.052,2.052-4.533,3.077-7.443,3.077c-2.913,0-5.359-1.025-7.344-3.077c-1.06-1.058-1.854-2.184-2.382-3.375l-18.361-47.143
		h-50.815l-18.46,47.143c-0.53,1.191-1.324,2.317-2.382,3.375c-2.052,2.052-4.533,3.077-7.444,3.077
		c-2.912,0-5.376-1.025-7.394-3.077c-2.019-2.05-3.027-4.531-3.027-7.444C953.84,2096.208,954.203,2094.62,954.932,2093.032z
		 M1035.224,2033.682l-17.269-44.562l-17.269,44.562H1035.224z"/>
	<path id="XMLID_146_" style="fill:#272626;" d="M1095.868,1997.159h4.665v-37.317c0-2.844,1.008-5.275,3.027-7.294
		c2.018-2.018,4.481-3.027,7.394-3.027c2.844,0,5.275,1.01,7.294,3.027c2.018,2.019,3.027,4.451,3.027,7.294v37.317h12.406
		c2.844,0,5.26,1.01,7.244,3.027c1.986,2.019,2.979,4.45,2.979,7.294c0,2.913-0.992,5.376-2.979,7.394
		c-1.984,2.019-4.4,3.027-7.244,3.027h-12.406v49.922c0,13.167,6.615,19.75,19.85,19.75c2.844,0,5.26,1.009,7.244,3.027
		c1.986,2.019,2.979,4.451,2.979,7.295c0,2.912-0.992,5.376-2.979,7.394c-1.984,2.019-4.4,3.027-7.244,3.027
		c-27.062,0-40.593-13.498-40.593-40.493v-49.922h-4.665c-2.779,0-5.178-1.008-7.195-3.027c-2.019-2.018-3.027-4.481-3.027-7.394
		c0-2.844,1.008-5.275,3.027-7.294C1090.69,1998.169,1093.089,1997.159,1095.868,1997.159z"/>
	<path id="XMLID_148_" style="fill:#272626;" d="M1171.201,1997.159h4.665v-37.317c0-2.844,1.008-5.275,3.026-7.294
		c2.018-2.018,4.482-3.027,7.395-3.027c2.844,0,5.275,1.01,7.295,3.027c2.018,2.019,3.026,4.451,3.026,7.294v37.317h12.406
		c2.844,0,5.26,1.01,7.245,3.027c1.985,2.019,2.978,4.45,2.978,7.294c0,2.913-0.992,5.376-2.978,7.394
		c-1.985,2.019-4.401,3.027-7.245,3.027h-12.406v49.922c0,13.167,6.616,19.75,19.85,19.75c2.845,0,5.261,1.009,7.245,3.027
		c1.985,2.019,2.978,4.451,2.978,7.295c0,2.912-0.992,5.376-2.978,7.394c-1.984,2.019-4.4,3.027-7.245,3.027
		c-27.062,0-40.592-13.498-40.592-40.493v-49.922h-4.665c-2.779,0-5.178-1.008-7.195-3.027c-2.02-2.018-3.027-4.481-3.027-7.394
		c0-2.844,1.008-5.275,3.027-7.294C1166.023,1998.169,1168.422,1997.159,1171.201,1997.159z"/>
	<path id="XMLID_150_" style="fill:#272626;" d="M1321.367,2097.995v-1.985c-4.962,3.97-10.355,7.014-16.177,9.131
		c-5.823,2.118-12.044,3.176-18.659,3.176c-15.351,0-28.451-5.424-39.302-16.277c-10.853-10.851-16.277-23.951-16.277-39.302
		c0-15.35,5.425-28.45,16.277-39.302c10.851-10.851,23.951-16.277,39.302-16.277c15.218,0,28.318,5.426,39.303,16.277
		c10.851,10.852,16.276,23.953,16.276,39.302v45.257c0,2.846-1.01,5.277-3.027,7.295c-2.019,2.019-4.45,3.027-7.295,3.027
		c-2.912,0-5.376-1.008-7.394-3.027C1322.375,2103.272,1321.367,2100.841,1321.367,2097.995z M1286.531,2017.901
		c-4.897,0-9.463,0.928-13.696,2.779c-4.235,1.853-7.907,4.351-11.017,7.493c-3.11,3.143-5.574,6.833-7.394,11.066
		c-1.82,4.235-2.729,8.734-2.729,13.498c0,4.764,0.909,9.264,2.729,13.498c1.819,4.235,4.283,7.924,7.394,11.066
		c3.109,3.144,6.781,5.642,11.017,7.493c4.233,1.854,8.799,2.779,13.696,2.779c4.829,0,9.362-0.926,13.597-2.779
		c4.234-1.852,7.923-4.367,11.066-7.542c3.142-3.176,5.623-6.864,7.443-11.066c1.819-4.201,2.729-8.684,2.729-13.448
		c0-4.764-0.91-9.246-2.729-13.448c-1.82-4.201-4.302-7.89-7.443-11.066c-3.144-3.176-6.832-5.689-11.066-7.542
		C1295.894,2018.829,1291.36,2017.901,1286.531,2017.901z"/>
	<path id="XMLID_153_" style="fill:#272626;" d="M1438.483,2076.855c2.978,0,5.441,0.977,7.394,2.928
		c1.951,1.952,2.929,4.417,2.929,7.394c0,2.912-1.092,5.458-3.275,7.642c-10.257,8.999-22.331,13.498-36.226,13.498
		c-15.351,0-28.452-5.424-39.303-16.277c-10.852-10.851-16.276-23.951-16.276-39.302c0-15.35,5.425-28.45,16.276-39.302
		c10.851-10.851,23.952-16.277,39.303-16.277c13.96,0,26.035,4.5,36.226,13.498c2.382,2.119,3.572,4.731,3.572,7.841
		c0,2.978-0.977,5.458-2.928,7.443c-1.952,1.985-4.416,2.978-7.394,2.978c-2.516,0-4.764-0.794-6.749-2.382
		c-3.374-2.844-6.915-4.995-10.619-6.451c-3.707-1.455-7.741-2.184-12.108-2.184c-4.831,0-9.363,0.911-13.597,2.729
		c-4.235,1.821-7.94,4.302-11.116,7.443c-3.176,3.144-5.674,6.833-7.493,11.066c-1.82,4.235-2.729,8.768-2.729,13.597
		c0,4.831,0.909,9.363,2.729,13.597c1.819,4.235,4.317,7.924,7.493,11.066c3.176,3.143,6.881,5.625,11.116,7.443
		c4.233,1.821,8.766,2.729,13.597,2.729c4.367,0,8.401-0.71,12.108-2.134c3.704-1.422,7.211-3.556,10.52-6.402
		C1433.785,2077.649,1435.968,2076.922,1438.483,2076.855z"/>
	<path id="XMLID_155_" style="fill:#272626;" d="M1460.817,2097.896v-137.955c0-2.911,1.008-5.375,3.027-7.394
		c2.018-2.018,4.481-3.027,7.394-3.027c2.845,0,5.276,1.01,7.295,3.027c2.018,2.019,3.027,4.483,3.027,7.394v77.413l59.35-38.607
		c1.653-1.058,3.507-1.588,5.559-1.588c1.454,0,2.812,0.265,4.069,0.794c1.256,0.53,2.348,1.275,3.274,2.233
		c0.926,0.959,1.671,2.068,2.233,3.325c0.562,1.257,0.844,2.58,0.844,3.97c0,3.707-1.324,6.451-3.97,8.238l-41.585,26.995
		l42.677,48.036c1.918,2.118,2.878,4.533,2.878,7.245c0,1.39-0.282,2.714-0.844,3.97c-0.562,1.258-1.308,2.367-2.233,3.325
		c-0.927,0.959-2.019,1.704-3.274,2.233c-1.258,0.53-2.615,0.794-4.069,0.794c-2.779,0-5.096-0.893-6.947-2.68l-45.853-51.51
		l-12.108,7.94v35.829c0,2.846-1.01,5.294-3.027,7.344c-2.019,2.052-4.45,3.077-7.295,3.077c-2.912,0-5.376-1.025-7.394-3.077
		C1461.825,2103.19,1460.817,2100.741,1460.817,2097.896z"/>
</g>
<path id="XMLID_657_" style="fill:#5078BB;" d="M260.37,1902.431l-126.364,43.948c-6.243,1.762-10.638,7.325-10.89,13.807
	c-1.599,41.117,2.648,186.96,137.254,243.087c0,0,140.755-45.531,140.244-242.412c-0.016-6.008-4.03-11.289-9.808-12.937
	L260.37,1902.431z"/>
<g id="XMLID_652_">
	<polyline id="XMLID_654_" style="fill:none;stroke:#FFFFFF;stroke-width:16.949;stroke-miterlimit:10;" points="273.172,2148.955 
		223.431,2043.073 275.528,2014.304 217.428,1917.228 	"/>
	
		<line id="XMLID_653_" style="fill:none;stroke:#FFFFFF;stroke-width:16.949;stroke-miterlimit:10;" x1="204.218" y1="1917.746" x2="275.528" y2="2014.304"/>
</g>
<g id="XMLID_647_">
	<g id="XMLID_128_">
		<path id="XMLID_129_" style="fill:#272626;" d="M118.753,1941.171l-34.472,54.165c-0.591,0.928-1.833,1.204-2.761,0.614
			l-8.888-5.656c-0.928-0.591-1.204-1.833-0.613-2.761l34.472-54.165c0.591-0.928,1.833-1.204,2.761-0.613l8.888,5.656
			C119.067,1939,119.343,1940.243,118.753,1941.171z"/>
	</g>
</g>
<g id="XMLID_639_">
	<g id="XMLID_130_">
		<path id="XMLID_131_" style="fill:#272626;" d="M54.025,1916.804l-17.771,27.924c-0.591,0.928-1.833,1.204-2.761,0.614
			l-6.67-4.245c-0.928-0.591-1.204-1.833-0.613-2.761l17.771-27.924c0.591-0.928,1.833-1.204,2.761-0.613l6.67,4.245
			C54.34,1914.633,54.616,1915.876,54.025,1916.804z"/>
	</g>
</g>
<polygon id="XMLID_533_" style="fill:#272626;" points="91.674,1982.3 379.378,2172.984 444.354,2192.601 400.616,2139.309 
	112.911,1948.626 "/>
<rect id="XMLID_529_" x="56.829" y="1917.073" transform="matrix(0.5452 -0.8383 0.8383 0.5452 -1600.1708 940.1486)" style="fill:#272626;" width="19.013" height="55.368"/>
<polygon id="XMLID_519_" style="fill:#5078BB;" points="248.828,2038.708 261.762,2156.146 335.661,2150.624 363.549,2112.807 "/>
<g id="XMLID_967_">
	<path id="XMLID_990_" style="fill:#21468B;" d="M517.372,233.175c-38.901,0-70.422-31.52-70.422-70.421s31.52-70.422,70.422-70.422
		c38.901,0,70.421,31.52,70.421,70.422S556.274,233.175,517.372,233.175z M517.372,104.9c-31.919,0-57.654,25.934-57.654,57.853
		c0,31.719,25.735,57.654,57.654,57.654c31.919,0,57.654-25.934,57.654-57.654C575.026,130.835,549.291,104.9,517.372,104.9z"/>
	<path id="XMLID_987_" style="fill:#21468B;" d="M705.691,179.312c0,30.722-21.944,53.863-50.871,53.863
		c-15.561,0-29.126-6.583-38.303-17.556v66.032c0,3.591-2.793,6.384-6.384,6.384c-3.391,0-6.384-2.793-6.384-6.384V131.633
		c0-3.392,2.993-6.184,6.384-6.184c3.591,0,6.384,2.793,6.384,6.184v11.172c9.177-10.773,22.742-17.356,38.303-17.356
		C683.747,125.448,705.691,148.59,705.691,179.312z M693.123,179.312c0-23.54-16.558-41.295-38.303-41.295
		c-21.944,0-38.303,17.755-38.303,41.295c0,23.341,16.359,41.096,38.303,41.096C676.565,220.407,693.123,202.652,693.123,179.312z"
		/>
	<path id="XMLID_984_" style="fill:#21468B;" d="M771.524,233.175c-29.127,0-50.871-23.141-50.871-53.863
		c0-14.563,4.788-27.929,13.565-37.904c9.177-10.374,22.144-15.96,36.308-15.96c28.528,0,49.075,22.543,49.075,53.863
		c0,3.391-2.793,6.384-6.384,6.384H733.62c2.793,20.149,18.154,34.712,37.904,34.712c13.366,0,25.136-6.384,31.919-17.954
		c1.995-2.993,5.785-3.791,8.778-1.995c2.992,1.795,3.99,5.785,2.194,8.778C805.039,224.397,789.478,233.175,771.524,233.175z
		 M733.62,172.928h72.815c-2.394-20.747-16.358-34.911-35.909-34.911C750.976,138.016,736.213,152.38,733.62,172.928z"/>
	<path id="XMLID_982_" style="fill:#21468B;" d="M923.535,171.332v55.459c0,3.591-2.793,6.384-6.184,6.384
		c-3.591,0-6.384-2.793-6.384-6.384v-55.459c0-19.151-12.568-33.315-29.924-33.315c-17.954,0-31.919,14.763-31.919,33.315v0.997
		c0,0.199,0,0.399,0,0.599v53.863c0,3.591-2.793,6.384-6.384,6.384c-3.392,0-6.184-2.793-6.184-6.384v-95.159
		c0-3.392,2.793-6.184,6.184-6.184c3.591,0,6.384,2.793,6.384,6.184v7.182c8.179-8.379,19.351-13.366,31.919-13.366
		c12.169,0,23.341,4.788,31.121,13.765C919.545,147.592,923.535,158.963,923.535,171.332z"/>
	<path id="XMLID_979_" style="fill:#323333;" d="M942.078,218.174l52.016-133.839c2.077-4.675,5.357-7.014,9.838-7.014
		c4.61,0,7.89,2.338,9.838,7.014l52.211,134.325c0.519,1.3,0.779,2.696,0.779,4.188c0,2.859-1.007,5.294-3.02,7.306
		c-2.014,2.014-4.449,3.02-7.305,3.02c-2.859,0-5.26-1.006-7.208-3.02c-1.04-1.038-1.819-2.143-2.338-3.312l-18.02-46.269h-49.873
		l-18.118,46.269c-0.52,1.169-1.3,2.274-2.338,3.312c-2.014,2.014-4.449,3.02-7.306,3.02c-2.858,0-5.277-1.006-7.257-3.02
		c-1.982-2.012-2.971-4.447-2.971-7.306C941.006,221.291,941.362,219.733,942.078,218.174z M1020.881,159.924l-16.949-43.736
		l-16.949,43.736H1020.881z"/>
	<path id="XMLID_977_" style="fill:#323333;" d="M1080.4,124.078h4.578V87.453c0-2.791,0.99-5.178,2.971-7.159
		c1.98-1.98,4.398-2.971,7.257-2.971c2.791,0,5.178,0.991,7.159,2.971c1.98,1.982,2.971,4.368,2.971,7.159v36.626h12.176
		c2.791,0,5.162,0.991,7.11,2.971c1.949,1.982,2.923,4.368,2.923,7.159c0,2.859-0.974,5.277-2.923,7.257
		c-1.948,1.982-4.319,2.971-7.11,2.971h-12.176v48.996c0,12.923,6.493,19.384,19.482,19.384c2.791,0,5.162,0.991,7.11,2.971
		c1.949,1.982,2.923,4.368,2.923,7.16c0,2.858-0.974,5.277-2.923,7.257c-1.948,1.982-4.319,2.971-7.11,2.971
		c-26.561,0-39.84-13.247-39.84-39.742v-48.996h-4.578c-2.727,0-5.082-0.989-7.062-2.971c-1.982-1.98-2.971-4.398-2.971-7.257
		c0-2.792,0.99-5.178,2.971-7.159C1075.319,125.069,1077.673,124.078,1080.4,124.078z"/>
	<path id="XMLID_975_" style="fill:#323333;" d="M1154.337,124.078h4.578V87.453c0-2.791,0.989-5.178,2.97-7.159
		c1.98-1.98,4.399-2.971,7.257-2.971c2.791,0,5.177,0.991,7.16,2.971c1.98,1.982,2.97,4.368,2.97,7.159v36.626h12.176
		c2.791,0,5.162,0.991,7.111,2.971c1.949,1.982,2.922,4.368,2.922,7.159c0,2.859-0.974,5.277-2.922,7.257
		c-1.948,1.982-4.32,2.971-7.111,2.971h-12.176v48.996c0,12.923,6.494,19.384,19.482,19.384c2.792,0,5.163,0.991,7.111,2.971
		c1.948,1.982,2.922,4.368,2.922,7.16c0,2.858-0.974,5.277-2.922,7.257c-1.948,1.982-4.319,2.971-7.111,2.971
		c-26.56,0-39.839-13.247-39.839-39.742v-48.996h-4.578c-2.728,0-5.082-0.989-7.062-2.971c-1.982-1.98-2.971-4.398-2.971-7.257
		c0-2.792,0.989-5.178,2.971-7.159C1149.255,125.069,1151.609,124.078,1154.337,124.078z"/>
	<path id="XMLID_972_" style="fill:#323333;" d="M1301.719,223.045v-1.948c-4.87,3.896-10.163,6.884-15.877,8.962
		c-5.715,2.079-11.821,3.117-18.313,3.117c-15.066,0-27.924-5.324-38.573-15.975c-10.651-10.649-15.976-23.507-15.976-38.573
		c0-15.065,5.324-27.923,15.976-38.574c10.649-10.649,23.507-15.975,38.573-15.975c14.936,0,27.793,5.326,38.574,15.975
		c10.649,10.651,15.975,23.509,15.975,38.574v44.418c0,2.793-0.991,5.18-2.971,7.16c-1.981,1.982-4.368,2.971-7.16,2.971
		c-2.858,0-5.276-0.989-7.256-2.971C1302.708,228.224,1301.719,225.837,1301.719,223.045z M1267.529,144.436
		c-4.807,0-9.287,0.911-13.442,2.728c-4.157,1.819-7.761,4.27-10.812,7.354c-3.053,3.085-5.471,6.706-7.256,10.861
		c-1.786,4.157-2.679,8.572-2.679,13.248c0,4.675,0.892,9.092,2.679,13.247c1.786,4.156,4.204,7.777,7.256,10.861
		c3.052,3.085,6.656,5.537,10.812,7.354c4.155,1.819,8.636,2.728,13.442,2.728c4.74,0,9.189-0.909,13.345-2.728
		c4.156-1.817,7.776-4.286,10.861-7.403c3.083-3.117,5.519-6.737,7.305-10.861c1.786-4.123,2.679-8.523,2.679-13.198
		c0-4.676-0.893-9.074-2.679-13.199c-1.787-4.123-4.222-7.744-7.305-10.861c-3.085-3.117-6.705-5.584-10.861-7.403
		C1276.718,145.347,1272.269,144.436,1267.529,144.436z"/>
	<path id="XMLID_970_" style="fill:#323333;" d="M1416.664,202.297c2.922,0,5.34,0.959,7.256,2.873
		c1.915,1.916,2.874,4.335,2.874,7.257c0,2.858-1.072,5.357-3.215,7.5c-10.067,8.832-21.917,13.247-35.554,13.247
		c-15.066,0-27.925-5.324-38.574-15.975c-10.65-10.649-15.975-23.507-15.975-38.573c0-15.065,5.324-27.923,15.975-38.574
		c10.649-10.649,23.508-15.975,38.574-15.975c13.701,0,25.552,4.417,35.554,13.247c2.338,2.079,3.506,4.644,3.506,7.695
		c0,2.922-0.958,5.357-2.873,7.305c-1.916,1.949-4.334,2.922-7.256,2.922c-2.469,0-4.675-0.779-6.624-2.338
		c-3.312-2.792-6.787-4.903-10.422-6.332c-3.638-1.428-7.598-2.143-11.884-2.143c-4.741,0-9.19,0.894-13.345,2.679
		c-4.157,1.787-7.793,4.222-10.91,7.305c-3.117,3.085-5.569,6.706-7.354,10.861c-1.787,4.156-2.679,8.606-2.679,13.345
		c0,4.741,0.892,9.19,2.679,13.345c1.786,4.157,4.237,7.777,7.354,10.861c3.117,3.085,6.753,5.52,10.91,7.305
		c4.155,1.787,8.603,2.679,13.345,2.679c4.286,0,8.246-0.697,11.884-2.094c3.635-1.396,7.077-3.49,10.325-6.283
		C1412.053,203.076,1414.195,202.362,1416.664,202.297z"/>
	<path id="XMLID_968_" style="fill:#323333;" d="M1438.584,222.947V87.55c0-2.857,0.989-5.275,2.971-7.257
		c1.98-1.98,4.398-2.971,7.256-2.971c2.792,0,5.179,0.991,7.16,2.971c1.98,1.982,2.971,4.4,2.971,7.257v75.978l58.249-37.892
		c1.623-1.038,3.442-1.558,5.456-1.558c1.427,0,2.759,0.26,3.994,0.779c1.233,0.52,2.304,1.251,3.214,2.192
		c0.909,0.942,1.64,2.03,2.192,3.263c0.551,1.234,0.828,2.532,0.828,3.896c0,3.638-1.3,6.332-3.896,8.085l-40.814,26.495
		l41.886,47.146c1.882,2.079,2.825,4.449,2.825,7.111c0,1.364-0.277,2.664-0.828,3.896c-0.552,1.234-1.283,2.323-2.192,3.264
		c-0.91,0.942-1.981,1.673-3.214,2.192c-1.234,0.52-2.567,0.779-3.994,0.779c-2.728,0-5.001-0.876-6.818-2.63l-45.002-50.555
		l-11.884,7.793v35.164c0,2.793-0.991,5.196-2.971,7.208c-1.981,2.014-4.368,3.02-7.16,3.02c-2.858,0-5.276-1.006-7.256-3.02
		C1439.573,228.143,1438.584,225.74,1438.584,222.947z"/>
</g>
<path id="XMLID_966_" style="fill:#21468B;" d="M258.935,31.664L134.913,74.797c-6.127,1.729-10.44,7.189-10.688,13.551
	c-1.569,40.354,2.599,183.494,134.709,238.58c0,0,138.146-44.687,137.644-237.918c-0.015-5.897-3.955-11.079-9.626-12.697
	L258.935,31.664z"/>
<g id="XMLID_961_">
	<polyline id="XMLID_963_" style="fill:none;stroke:#FFFFFF;stroke-width:16.6348;stroke-miterlimit:10;" points="272.957,273.06 
		224.138,169.141 275.27,140.905 219.606,47.104 	"/>
	
		<line id="XMLID_962_" style="fill:none;stroke:#FFFFFF;stroke-width:16.6348;stroke-linecap:round;stroke-miterlimit:10;" x1="213.137" y1="56.773" x2="275.27" y2="140.905"/>
</g>
<g id="XMLID_956_">
	<g id="XMLID_254_">
		<path id="XMLID_255_" style="fill:#272626;" d="M121.381,69.159l-33.793,53.098c-0.591,0.928-1.833,1.204-2.761,0.613l-8.66-5.512
			c-0.928-0.591-1.204-1.833-0.613-2.761L109.346,61.5c0.591-0.928,1.833-1.204,2.761-0.613l8.66,5.512
			C121.696,66.989,121.972,68.231,121.381,69.159z"/>
	</g>
</g>
<g id="XMLID_951_">
	<g id="XMLID_252_">
		<path id="XMLID_253_" style="fill:#272626;" d="M57.853,45.244L40.451,72.588c-0.591,0.928-1.833,1.204-2.761,0.613l-6.484-4.127
			c-0.928-0.591-1.204-1.833-0.613-2.761L47.995,38.97c0.591-0.928,1.833-1.204,2.761-0.613l6.484,4.127
			C58.168,43.074,58.444,44.316,57.853,45.244z"/>
	</g>
</g>
<polygon id="XMLID_948_" style="fill:#272626;" points="94.824,109.495 377.194,296.643 440.966,315.896 398.038,263.593 
	115.668,76.445 "/>
<rect id="XMLID_945_" x="60.625" y="45.477" transform="matrix(0.5452 -0.8383 0.8383 0.5452 -29.0848 91.6879)" style="fill:#272626;" width="18.661" height="54.341"/>
<polygon id="XMLID_944_" style="fill:#21468B;" points="249.065,164.857 261.758,280.118 334.288,274.698 361.658,237.582 "/>
<polygon id="XMLID_943_" style="fill:#FFFFFF;" points="209.546,65.936 199.345,52.388 226.739,42.861 230.8,49.711 "/>
</svg>
