<?xml version="1.0" encoding="iso-8859-1"?>
<!-- Generator: Adobe Illustrator 19.0.0, SVG Export Plug-In . SVG Version: 6.00 Build 0)  -->
<svg version="1.1" id="&#x56FE;&#x5C42;_1" xmlns="http://www.w3.org/2000/svg" xmlns:xlink="http://www.w3.org/1999/xlink" x="0px"
	 y="0px" viewBox="0 0 1586.189 364.541" style="enable-background:new 0 0 1586.189 364.541;" xml:space="preserve">
<g id="XMLID_126_">
	<path id="XMLID_132_" style="fill:#5078BB;" d="M522.204,2108.317c-39.636,0-71.752-32.115-71.752-71.752
		c0-39.636,32.116-71.752,71.752-71.752s71.751,32.116,71.751,71.752C593.956,2076.201,561.84,2108.317,522.204,2108.317z
		 M522.204,1977.619c-32.522,0-58.743,26.424-58.743,58.946c0,32.318,26.221,58.743,58.743,58.743s58.743-26.424,58.743-58.743
		C580.947,2004.043,554.726,1977.619,522.204,1977.619z"/>
	<path id="XMLID_135_" style="fill:#5078BB;" d="M714.08,2053.436c0,31.302-22.359,54.881-51.832,54.881
		c-15.854,0-29.676-6.708-39.026-17.887v67.28c0,3.659-2.846,6.504-6.504,6.504c-3.455,0-6.504-2.846-6.504-6.504v-152.853
		c0-3.456,3.049-6.301,6.504-6.301c3.659,0,6.504,2.846,6.504,6.301v11.383c9.35-10.977,23.172-17.684,39.026-17.684
		C691.721,1998.555,714.08,2022.133,714.08,2053.436z M701.274,2053.436c0-23.985-16.871-42.075-39.026-42.075
		c-22.358,0-39.026,18.09-39.026,42.075c0,23.782,16.668,41.872,39.026,41.872C684.404,2095.308,701.274,2077.218,701.274,2053.436z
		"/>
	<path id="XMLID_138_" style="fill:#5078BB;" d="M781.156,2108.317c-29.677,0-51.832-23.579-51.832-54.881
		c0-14.838,4.878-28.457,13.822-38.62c9.35-10.57,22.562-16.261,36.994-16.261c29.066,0,50.002,22.969,50.002,54.881
		c0,3.456-2.846,6.504-6.504,6.504h-81.102c2.846,20.529,18.497,35.368,38.62,35.368c13.618,0,25.611-6.504,32.522-18.293
		c2.032-3.049,5.895-3.862,8.943-2.033c3.049,1.829,4.065,5.895,2.236,8.943C815.304,2099.373,799.45,2108.317,781.156,2108.317z
		 M742.536,2046.931h74.191c-2.439-21.139-16.667-35.571-36.587-35.571C760.22,2011.36,745.179,2025.995,742.536,2046.931z"/>
	<path id="XMLID_141_" style="fill:#5078BB;" d="M936.04,2045.305v56.507c0,3.659-2.846,6.504-6.301,6.504
		c-3.659,0-6.504-2.846-6.504-6.504v-56.507c0-19.513-12.805-33.945-30.489-33.945c-18.293,0-32.522,15.042-32.522,33.945v1.016
		c0,0.203,0,0.407,0,0.61v54.881c0,3.659-2.846,6.504-6.504,6.504c-3.456,0-6.301-2.846-6.301-6.504v-96.956
		c0-3.456,2.846-6.301,6.301-6.301c3.659,0,6.504,2.846,6.504,6.301v7.317c8.334-8.537,19.716-13.619,32.522-13.619
		c12.399,0,23.782,4.878,31.709,14.025C931.974,2021.117,936.04,2032.703,936.04,2045.305z"/>
	<path id="XMLID_143_" style="fill:#272626;" d="M954.932,2093.032l52.999-136.367c2.117-4.764,5.458-7.146,10.024-7.146
		c4.697,0,8.039,2.382,10.024,7.146l53.197,136.863c0.529,1.325,0.794,2.747,0.794,4.268c0,2.913-1.026,5.394-3.077,7.444
		c-2.052,2.052-4.533,3.077-7.443,3.077c-2.913,0-5.359-1.025-7.344-3.077c-1.06-1.058-1.854-2.184-2.382-3.375l-18.361-47.143
		h-50.815l-18.46,47.143c-0.53,1.191-1.324,2.317-2.382,3.375c-2.052,2.052-4.533,3.077-7.444,3.077
		c-2.912,0-5.376-1.025-7.394-3.077c-2.019-2.05-3.027-4.531-3.027-7.444C953.84,2096.208,954.203,2094.62,954.932,2093.032z
		 M1035.224,2033.682l-17.269-44.562l-17.269,44.562H1035.224z"/>
	<path id="XMLID_146_" style="fill:#272626;" d="M1095.868,1997.159h4.665v-37.317c0-2.844,1.008-5.275,3.027-7.294
		c2.018-2.018,4.481-3.027,7.394-3.027c2.844,0,5.275,1.01,7.294,3.027c2.018,2.019,3.027,4.451,3.027,7.294v37.317h12.406
		c2.844,0,5.26,1.01,7.244,3.027c1.986,2.019,2.979,4.45,2.979,7.294c0,2.913-0.992,5.376-2.979,7.394
		c-1.984,2.019-4.4,3.027-7.244,3.027h-12.406v49.922c0,13.167,6.615,19.75,19.85,19.75c2.844,0,5.26,1.009,7.244,3.027
		c1.986,2.019,2.979,4.451,2.979,7.295c0,2.912-0.992,5.376-2.979,7.394c-1.984,2.019-4.4,3.027-7.244,3.027
		c-27.062,0-40.593-13.498-40.593-40.493v-49.922h-4.665c-2.779,0-5.178-1.008-7.195-3.027c-2.019-2.018-3.027-4.481-3.027-7.394
		c0-2.844,1.008-5.275,3.027-7.294C1090.69,1998.169,1093.089,1997.159,1095.868,1997.159z"/>
	<path id="XMLID_148_" style="fill:#272626;" d="M1171.201,1997.159h4.665v-37.317c0-2.844,1.008-5.275,3.026-7.294
		c2.018-2.018,4.482-3.027,7.395-3.027c2.844,0,5.275,1.01,7.295,3.027c2.018,2.019,3.026,4.451,3.026,7.294v37.317h12.406
		c2.844,0,5.26,1.01,7.245,3.027c1.985,2.019,2.978,4.45,2.978,7.294c0,2.913-0.992,5.376-2.978,7.394
		c-1.985,2.019-4.401,3.027-7.245,3.027h-12.406v49.922c0,13.167,6.616,19.75,19.85,19.75c2.845,0,5.261,1.009,7.245,3.027
		c1.985,2.019,2.978,4.451,2.978,7.295c0,2.912-0.992,5.376-2.978,7.394c-1.984,2.019-4.4,3.027-7.245,3.027
		c-27.062,0-40.592-13.498-40.592-40.493v-49.922h-4.665c-2.779,0-5.178-1.008-7.195-3.027c-2.02-2.018-3.027-4.481-3.027-7.394
		c0-2.844,1.008-5.275,3.027-7.294C1166.023,1998.169,1168.422,1997.159,1171.201,1997.159z"/>
	<path id="XMLID_150_" style="fill:#272626;" d="M1321.367,2097.995v-1.985c-4.962,3.97-10.355,7.014-16.177,9.131
		c-5.823,2.118-12.044,3.176-18.659,3.176c-15.351,0-28.451-5.424-39.302-16.277c-10.853-10.851-16.277-23.951-16.277-39.302
		c0-15.35,5.425-28.45,16.277-39.302c10.851-10.851,23.951-16.277,39.302-16.277c15.218,0,28.318,5.426,39.303,16.277
		c10.851,10.852,16.276,23.953,16.276,39.302v45.257c0,2.846-1.01,5.277-3.027,7.295c-2.019,2.019-4.45,3.027-7.295,3.027
		c-2.912,0-5.376-1.008-7.394-3.027C1322.375,2103.272,1321.367,2100.841,1321.367,2097.995z M1286.531,2017.901
		c-4.897,0-9.463,0.928-13.696,2.779c-4.235,1.853-7.907,4.351-11.017,7.493c-3.11,3.143-5.574,6.833-7.394,11.066
		c-1.82,4.235-2.729,8.734-2.729,13.498c0,4.764,0.909,9.264,2.729,13.498c1.819,4.235,4.283,7.924,7.394,11.066
		c3.109,3.144,6.781,5.642,11.017,7.493c4.233,1.854,8.799,2.779,13.696,2.779c4.829,0,9.362-0.926,13.597-2.779
		c4.234-1.852,7.923-4.367,11.066-7.542c3.142-3.176,5.623-6.864,7.443-11.066c1.819-4.201,2.729-8.684,2.729-13.448
		c0-4.764-0.91-9.246-2.729-13.448c-1.82-4.201-4.302-7.89-7.443-11.066c-3.144-3.176-6.832-5.689-11.066-7.542
		C1295.894,2018.829,1291.36,2017.901,1286.531,2017.901z"/>
	<path id="XMLID_153_" style="fill:#272626;" d="M1438.483,2076.855c2.978,0,5.441,0.977,7.394,2.928
		c1.951,1.952,2.929,4.417,2.929,7.394c0,2.912-1.092,5.458-3.275,7.642c-10.257,8.999-22.331,13.498-36.226,13.498
		c-15.351,0-28.452-5.424-39.303-16.277c-10.852-10.851-16.276-23.951-16.276-39.302c0-15.35,5.425-28.45,16.276-39.302
		c10.851-10.851,23.952-16.277,39.303-16.277c13.96,0,26.035,4.5,36.226,13.498c2.382,2.119,3.572,4.731,3.572,7.841
		c0,2.978-0.977,5.458-2.928,7.443c-1.952,1.985-4.416,2.978-7.394,2.978c-2.516,0-4.764-0.794-6.749-2.382
		c-3.374-2.844-6.915-4.995-10.619-6.451c-3.707-1.455-7.741-2.184-12.108-2.184c-4.831,0-9.363,0.911-13.597,2.729
		c-4.235,1.821-7.94,4.302-11.116,7.443c-3.176,3.144-5.674,6.833-7.493,11.066c-1.82,4.235-2.729,8.768-2.729,13.597
		c0,4.831,0.909,9.363,2.729,13.597c1.819,4.235,4.317,7.924,7.493,11.066c3.176,3.143,6.881,5.625,11.116,7.443
		c4.233,1.821,8.766,2.729,13.597,2.729c4.367,0,8.401-0.71,12.108-2.134c3.704-1.422,7.211-3.556,10.52-6.402
		C1433.785,2077.649,1435.968,2076.922,1438.483,2076.855z"/>
	<path id="XMLID_155_" style="fill:#272626;" d="M1460.817,2097.896v-137.955c0-2.911,1.008-5.375,3.027-7.394
		c2.018-2.018,4.481-3.027,7.394-3.027c2.845,0,5.276,1.01,7.295,3.027c2.018,2.019,3.027,4.483,3.027,7.394v77.413l59.35-38.607
		c1.653-1.058,3.507-1.588,5.559-1.588c1.454,0,2.812,0.265,4.069,0.794c1.256,0.53,2.348,1.275,3.274,2.233
		c0.926,0.959,1.671,2.068,2.233,3.325c0.562,1.257,0.844,2.58,0.844,3.97c0,3.707-1.324,6.451-3.97,8.238l-41.585,26.995
		l42.677,48.036c1.918,2.118,2.878,4.533,2.878,7.245c0,1.39-0.282,2.714-0.844,3.97c-0.562,1.258-1.308,2.367-2.233,3.325
		c-0.927,0.959-2.019,1.704-3.274,2.233c-1.258,0.53-2.615,0.794-4.069,0.794c-2.779,0-5.096-0.893-6.947-2.68l-45.853-51.51
		l-12.108,7.94v35.829c0,2.846-1.01,5.294-3.027,7.344c-2.019,2.052-4.45,3.077-7.295,3.077c-2.912,0-5.376-1.025-7.394-3.077
		C1461.825,2103.19,1460.817,2100.741,1460.817,2097.896z"/>
</g>
<path id="XMLID_657_" style="fill:#5078BB;" d="M260.37,1902.431l-126.364,43.948c-6.243,1.762-10.638,7.325-10.89,13.807
	c-1.599,41.117,2.648,186.96,137.254,243.087c0,0,140.755-45.531,140.244-242.412c-0.016-6.008-4.03-11.289-9.808-12.937
	L260.37,1902.431z"/>
<g id="XMLID_652_">
	<polyline id="XMLID_654_" style="fill:none;stroke:#FFFFFF;stroke-width:16.949;stroke-miterlimit:10;" points="273.172,2148.955 
		223.431,2043.073 275.528,2014.304 217.428,1917.228 	"/>
	
		<line id="XMLID_653_" style="fill:none;stroke:#FFFFFF;stroke-width:16.949;stroke-miterlimit:10;" x1="204.218" y1="1917.746" x2="275.528" y2="2014.304"/>
</g>
<g id="XMLID_647_">
	<g id="XMLID_128_">
		<path id="XMLID_129_" style="fill:#272626;" d="M118.753,1941.171l-34.472,54.165c-0.591,0.928-1.833,1.204-2.761,0.614
			l-8.888-5.656c-0.928-0.591-1.204-1.833-0.613-2.761l34.472-54.165c0.591-0.928,1.833-1.204,2.761-0.613l8.888,5.656
			C119.067,1939,119.343,1940.243,118.753,1941.171z"/>
	</g>
</g>
<g id="XMLID_639_">
	<g id="XMLID_130_">
		<path id="XMLID_131_" style="fill:#272626;" d="M54.025,1916.804l-17.771,27.924c-0.591,0.928-1.833,1.204-2.761,0.614
			l-6.67-4.245c-0.928-0.591-1.204-1.833-0.613-2.761l17.771-27.924c0.591-0.928,1.833-1.204,2.761-0.613l6.67,4.245
			C54.34,1914.633,54.616,1915.876,54.025,1916.804z"/>
	</g>
</g>
<polygon id="XMLID_533_" style="fill:#272626;" points="91.674,1982.3 379.378,2172.984 444.354,2192.601 400.616,2139.309 
	112.911,1948.626 "/>
<rect id="XMLID_529_" x="56.829" y="1917.073" transform="matrix(0.5452 -0.8383 0.8383 0.5452 -1600.1708 940.1486)" style="fill:#272626;" width="19.013" height="55.368"/>
<polygon id="XMLID_519_" style="fill:#5078BB;" points="248.828,2038.708 261.762,2156.146 335.661,2150.624 363.549,2112.807 "/>
<g id="XMLID_950_">
	<path id="XMLID_257_" style="fill:#176CB6;" d="M524.658,240.731c-39.812,0-72.07-32.258-72.07-72.07s32.258-72.07,72.07-72.07
		s72.07,32.258,72.07,72.07S564.47,240.731,524.658,240.731z M524.658,109.453c-32.666,0-59.004,26.542-59.004,59.208
		c0,32.462,26.338,59.003,59.004,59.003s59.003-26.542,59.003-59.003C583.661,135.995,557.324,109.453,524.658,109.453z"/>
	<path id="XMLID_254_" style="fill:#176CB6;" d="M717.385,185.607c0,31.441-22.458,55.124-52.062,55.124
		c-15.925,0-29.808-6.737-39.2-17.967v67.578c0,3.675-2.858,6.533-6.533,6.533c-3.47,0-6.533-2.858-6.533-6.533V136.811
		c0-3.471,3.063-6.329,6.533-6.329c3.675,0,6.533,2.858,6.533,6.329v11.433c9.392-11.025,23.275-17.763,39.2-17.763
		C694.927,130.482,717.385,154.166,717.385,185.607z M704.523,185.607c0-24.091-16.945-42.262-39.2-42.262
		c-22.458,0-39.2,18.171-39.2,42.262c0,23.887,16.742,42.058,39.2,42.058C687.577,227.665,704.523,209.494,704.523,185.607z"/>
	<path id="XMLID_251_" style="fill:#176CB6;" d="M784.759,240.731c-29.808,0-52.062-23.683-52.062-55.124
		c0-14.904,4.9-28.583,13.883-38.791c9.392-10.617,22.662-16.333,37.158-16.333c29.195,0,50.224,23.071,50.224,55.124
		c0,3.471-2.858,6.533-6.533,6.533h-81.461c2.858,20.62,18.579,35.525,38.792,35.525c13.679,0,25.725-6.533,32.666-18.375
		c2.041-3.063,5.921-3.879,8.983-2.042c3.062,1.837,4.083,5.921,2.246,8.983C819.059,231.748,803.134,240.731,784.759,240.731z
		 M745.968,179.073h74.52c-2.45-21.233-16.741-35.729-36.75-35.729C763.73,143.345,748.622,158.044,745.968,179.073z"/>
	<path id="XMLID_249_" style="fill:#176CB6;" d="M940.33,177.44v56.758c0,3.675-2.858,6.533-6.329,6.533
		c-3.675,0-6.533-2.858-6.533-6.533V177.44c0-19.6-12.862-34.095-30.625-34.095c-18.375,0-32.666,15.108-32.666,34.095v1.021
		c0,0.204,0,0.409,0,0.613v55.124c0,3.675-2.858,6.533-6.533,6.533c-3.471,0-6.329-2.858-6.329-6.533v-97.386
		c0-3.471,2.858-6.329,6.329-6.329c3.675,0,6.533,2.858,6.533,6.329v7.35c8.371-8.575,19.804-13.679,32.666-13.679
		c12.454,0,23.887,4.9,31.85,14.088C936.246,153.144,940.33,164.782,940.33,177.44z"/>
	<path id="XMLID_246_" style="fill:#323333;" d="M959.306,225.379l53.234-136.972c2.126-4.785,5.483-7.178,10.068-7.178
		c4.718,0,8.075,2.393,10.068,7.178l53.433,137.47c0.531,1.331,0.797,2.759,0.797,4.287c0,2.926-1.031,5.417-3.09,7.477
		c-2.061,2.061-4.553,3.09-7.476,3.09c-2.926,0-5.383-1.029-7.377-3.09c-1.064-1.062-1.862-2.193-2.393-3.389l-18.442-47.352h-51.04
		l-18.542,47.352c-0.533,1.196-1.33,2.327-2.392,3.389c-2.061,2.061-4.553,3.09-7.477,3.09c-2.925,0-5.4-1.029-7.427-3.09
		c-2.028-2.059-3.04-4.551-3.04-7.477C958.21,228.569,958.574,226.974,959.306,225.379z M1039.954,165.766l-17.346-44.76
		l-17.346,44.76H1039.954z"/>
	<path id="XMLID_244_" style="fill:#323333;" d="M1100.867,129.08h4.685V91.597c0-2.856,1.013-5.299,3.041-7.327
		c2.026-2.027,4.501-3.041,7.427-3.041c2.856,0,5.299,1.014,7.327,3.041c2.026,2.028,3.041,4.47,3.041,7.327v37.483h12.461
		c2.856,0,5.283,1.014,7.276,3.041c1.995,2.028,2.992,4.47,2.992,7.327c0,2.926-0.997,5.4-2.992,7.427
		c-1.993,2.028-4.42,3.04-7.276,3.04h-12.461v50.143c0,13.226,6.645,19.838,19.938,19.838c2.856,0,5.283,1.014,7.276,3.04
		c1.995,2.028,2.992,4.47,2.992,7.327c0,2.925-0.997,5.4-2.992,7.427c-1.993,2.028-4.42,3.04-7.276,3.04
		c-27.183,0-40.773-13.557-40.773-40.673v-50.143h-4.685c-2.791,0-5.201-1.012-7.227-3.04c-2.028-2.027-3.041-4.501-3.041-7.427
		c0-2.857,1.013-5.299,3.041-7.327C1095.667,130.094,1098.076,129.08,1100.867,129.08z"/>
	<path id="XMLID_965_" style="fill:#323333;" d="M1176.535,129.08h4.686V91.597c0-2.856,1.012-5.299,3.04-7.327
		c2.026-2.027,4.502-3.041,7.427-3.041c2.856,0,5.299,1.014,7.327,3.041c2.026,2.028,3.04,4.47,3.04,7.327v37.483h12.461
		c2.856,0,5.283,1.014,7.277,3.041c1.994,2.028,2.991,4.47,2.991,7.327c0,2.926-0.997,5.4-2.991,7.427
		c-1.994,2.028-4.421,3.04-7.277,3.04h-12.461v50.143c0,13.226,6.646,19.838,19.938,19.838c2.857,0,5.284,1.014,7.277,3.04
		c1.994,2.028,2.991,4.47,2.991,7.327c0,2.925-0.997,5.4-2.991,7.427c-1.993,2.028-4.42,3.04-7.277,3.04
		c-27.182,0-40.772-13.557-40.772-40.673v-50.143h-4.686c-2.792,0-5.201-1.012-7.227-3.04c-2.028-2.027-3.041-4.501-3.041-7.427
		c0-2.857,1.012-5.299,3.041-7.327C1171.335,130.094,1173.744,129.08,1176.535,129.08z"/>
	<path id="XMLID_958_" style="fill:#323333;" d="M1327.368,230.364v-1.994c-4.984,3.987-10.401,7.045-16.249,9.171
		c-5.849,2.128-12.097,3.19-18.742,3.19c-15.419,0-28.577-5.448-39.476-16.349c-10.901-10.899-16.35-24.057-16.35-39.476
		c0-15.418,5.449-28.576,16.35-39.477c10.899-10.899,24.057-16.349,39.476-16.349c15.285,0,28.444,5.45,39.477,16.349
		c10.899,10.9,16.349,24.059,16.349,39.477v45.458c0,2.858-1.014,5.301-3.041,7.327c-2.028,2.028-4.47,3.04-7.327,3.04
		c-2.925,0-5.4-1.012-7.426-3.04C1328.38,235.664,1327.368,233.222,1327.368,230.364z M1292.377,149.915
		c-4.919,0-9.505,0.932-13.757,2.792c-4.254,1.861-7.942,4.37-11.065,7.526c-3.124,3.157-5.599,6.863-7.426,11.115
		c-1.828,4.254-2.742,8.773-2.742,13.558c0,4.785,0.913,9.305,2.742,13.557c1.827,4.254,4.302,7.959,7.426,11.115
		c3.123,3.158,6.811,5.667,11.065,7.526c4.252,1.862,8.838,2.792,13.757,2.792c4.851,0,9.404-0.93,13.657-2.792
		c4.253-1.86,7.958-4.386,11.116-7.576c3.156-3.19,5.648-6.894,7.476-11.116c1.828-4.219,2.742-8.723,2.742-13.507
		c0-4.785-0.914-9.287-2.742-13.508c-1.828-4.22-4.321-7.925-7.476-11.116c-3.158-3.19-6.862-5.715-11.116-7.576
		C1301.781,150.847,1297.228,149.915,1292.377,149.915z"/>
	<path id="XMLID_954_" style="fill:#323333;" d="M1445.004,209.13c2.991,0,5.466,0.981,7.426,2.941
		c1.96,1.961,2.942,4.436,2.942,7.427c0,2.925-1.097,5.483-3.29,7.676c-10.302,9.039-22.43,13.557-36.386,13.557
		c-15.419,0-28.578-5.448-39.477-16.349c-10.9-10.899-16.349-24.057-16.349-39.476c0-15.418,5.449-28.576,16.349-39.477
		c10.899-10.899,24.058-16.349,39.477-16.349c14.022,0,26.151,4.52,36.386,13.557c2.392,2.128,3.588,4.752,3.588,7.876
		c0,2.991-0.981,5.483-2.941,7.476c-1.961,1.994-4.436,2.991-7.426,2.991c-2.527,0-4.785-0.797-6.779-2.392
		c-3.389-2.857-6.946-5.017-10.666-6.48c-3.724-1.461-7.776-2.193-12.162-2.193c-4.853,0-9.405,0.915-13.657,2.742
		c-4.254,1.829-7.976,4.321-11.166,7.476c-3.19,3.158-5.699,6.863-7.526,11.116c-1.828,4.254-2.742,8.807-2.742,13.658
		c0,4.852,0.913,9.405,2.742,13.657c1.827,4.254,4.337,7.959,7.526,11.116c3.19,3.157,6.911,5.649,11.166,7.476
		c4.252,1.829,8.804,2.742,13.657,2.742c4.387,0,8.439-0.714,12.162-2.143c3.721-1.429,7.243-3.572,10.566-6.43
		C1440.285,209.928,1442.477,209.197,1445.004,209.13z"/>
	<path id="XMLID_952_" style="fill:#323333;" d="M1467.437,230.264V91.697c0-2.924,1.012-5.399,3.041-7.427
		c2.026-2.027,4.501-3.041,7.426-3.041c2.857,0,5.3,1.014,7.327,3.041c2.026,2.028,3.041,4.503,3.041,7.427v77.757l59.613-38.779
		c1.661-1.062,3.522-1.595,5.583-1.595c1.461,0,2.824,0.266,4.087,0.797c1.261,0.533,2.358,1.281,3.289,2.243
		c0.93,0.964,1.678,2.078,2.243,3.339c0.564,1.263,0.848,2.592,0.848,3.987c0,3.723-1.33,6.48-3.987,8.274l-41.77,27.115
		l42.866,48.249c1.927,2.128,2.891,4.553,2.891,7.277c0,1.396-0.283,2.726-0.848,3.987c-0.565,1.263-1.313,2.377-2.243,3.34
		c-0.931,0.964-2.027,1.712-3.289,2.243c-1.263,0.533-2.627,0.797-4.087,0.797c-2.792,0-5.118-0.897-6.978-2.692l-46.056-51.738
		l-12.162,7.975v35.988c0,2.858-1.014,5.317-3.041,7.377c-2.027,2.061-4.47,3.09-7.327,3.09c-2.925,0-5.4-1.029-7.426-3.09
		C1468.449,235.581,1467.437,233.122,1467.437,230.264z"/>
</g>
<path id="XMLID_242_" style="fill:#176CB6;" d="M260.169,34.502L133.244,78.645c-6.271,1.77-10.685,7.358-10.938,13.868
	c-1.606,41.299,2.66,187.79,137.863,244.165c0,0,141.38-45.733,140.867-243.488c-0.016-6.035-4.048-11.339-9.851-12.994
	L260.169,34.502z"/>
<g id="XMLID_889_">
	<polyline id="XMLID_896_" style="fill:none;stroke:#FFFFFF;stroke-width:17.0242;stroke-miterlimit:10;" points="274.52,281.55 
		224.559,175.198 276.887,146.301 219.92,50.304 	"/>
	
		<line id="XMLID_890_" style="fill:none;stroke:#FFFFFF;stroke-width:17.0242;stroke-linecap:round;stroke-miterlimit:10;" x1="213.299" y1="60.199" x2="276.887" y2="146.301"/>
</g>
<g id="XMLID_832_">
	<g id="XMLID_272_">
		<path id="XMLID_273_" style="fill:#272626;" d="M119.421,72.836l-34.634,54.42c-0.591,0.928-1.833,1.204-2.761,0.613l-8.942-5.691
			c-0.928-0.591-1.204-1.833-0.613-2.761l34.634-54.42c0.591-0.928,1.833-1.204,2.761-0.613l8.942,5.691
			C119.735,70.665,120.011,71.908,119.421,72.836z"/>
	</g>
</g>
<g id="XMLID_820_">
	<g id="XMLID_271_">
		<path id="XMLID_274_" style="fill:#272626;" d="M54.406,48.361l-17.86,28.063c-0.591,0.928-1.833,1.204-2.761,0.613l-6.715-4.273
			c-0.928-0.591-1.204-1.833-0.613-2.761l17.86-28.063c0.591-0.928,1.833-1.204,2.761-0.613l6.715,4.273
			C54.72,46.19,54.996,47.433,54.406,48.361z"/>
	</g>
</g>
<polygon id="XMLID_205_" style="fill:#272626;" points="92.217,114.155 381.198,305.685 446.462,325.389 402.53,271.861 
	113.549,80.331 "/>
<rect id="XMLID_507_" x="57.217" y="48.639" transform="matrix(0.5452 -0.8383 0.8383 0.5452 -33.7194 90.7415)" style="fill:#272626;" width="19.098" height="55.614"/>
<polygon id="XMLID_501_" style="fill:#176CB6;" points="250.068,170.813 263.059,288.773 337.287,283.226 365.298,245.241 "/>
<polygon id="XMLID_500_" style="fill:#FFFFFF;" points="209.624,69.577 199.184,55.712 227.22,45.961 231.377,52.972 "/>
</svg>
