<?xml version="1.0" standalone="no"?><!DOCTYPE svg PUBLIC "-//W3C//DTD SVG 1.1//EN" "http://www.w3.org/Graphics/SVG/1.1/DTD/svg11.dtd"><svg t="1631775836716" class="icon" viewBox="0 0 1024 1024" version="1.1" xmlns="http://www.w3.org/2000/svg" p-id="5345" width="1000" height="1000" xmlns:xlink="http://www.w3.org/1999/xlink"><defs><style type="text/css"></style></defs><path d="M919.761455 0.558545H103.866182C48.593455 0.558545 3.607273 45.730909 3.607273 101.282909V417.978182h71.610182V114.920727c0-23.435636 18.920727-42.542545 42.170181-42.542545h788.829091c23.249455 0 42.193455 19.106909 42.193455 42.542545v793.437091a42.426182 42.426182 0 0 1-42.193455 42.565818H117.387636a42.426182 42.426182 0 0 1-42.193454-42.565818V590.824727h135.959273c9.495273 0.046545 18.618182-3.723636 25.320727-10.449454l48.500363-48.779637 107.985455 253.44c5.725091 13.172364 18.618182 21.690182 34.327273 21.690182h0.023272a35.979636 35.979636 0 0 0 32.535273-24.552727l135.168-407.761455 54.132364 190.417455c4.375273 15.36 18.408727 25.972364 34.397091 26.042182h128.884363a35.909818 35.909818 0 0 0 0-71.773091h-101.841454l-78.475637-276.177455c-4.305455-15.290182-17.803636-25.762909-34.56-26.112-14.894545 0-29.090909 10.309818-33.838545 24.552728L421.701818 669.742545l-91.717818-215.226181a35.84 35.84 0 0 0-58.274909-11.217455l-75.380364 75.822546H39.377455c-19.712 0-35.770182 16.081455-35.770182 36.840727v366.033454c0 55.598545 44.986182 100.770909 100.258909 100.770909h815.918545c55.272727 0 100.212364-45.172364 100.212364-100.770909V101.282909C1019.973818 45.730909 975.034182 0.558545 919.761455 0.558545z m0 0" p-id="5346" fill="#367998"></path></svg>