<?xml version="1.0" standalone="no"?><!DOCTYPE svg PUBLIC "-//W3C//DTD SVG 1.1//EN" "http://www.w3.org/Graphics/SVG/1.1/DTD/svg11.dtd"><svg t="1631775729153" class="icon" viewBox="0 0 1024 1024" version="1.1" xmlns="http://www.w3.org/2000/svg" p-id="2509" width="1000" height="1000" xmlns:xlink="http://www.w3.org/1999/xlink"><defs><style type="text/css"></style></defs><path d="M123.974 92.196h335.692c17.893 0 32.317 14.423 32.317 32.084v335.713c0 17.872-14.423 32.296-32.317 32.296h-335.692c-17.427 0-32.084-14.423-32.084-32.296v-335.713c0-17.661 14.657-32.084 32.084-32.084v0zM427.349 156.809v0h-270.846v271.1h270.847v-271.1h-0.001zM866.422 156.809v0h-270.867v271.1h270.867v-271.1zM563.47 92.196v0h335.481c17.893 0 32.55 14.423 32.55 32.084v335.714c0 17.872-14.657 32.296-32.55 32.296h-335.481c-17.872 0-32.528-14.423-32.528-32.296v-335.714c0-17.661 14.657-32.084 32.528-32.084v0zM156.504 866.961v0h270.847v-270.849h-270.847v270.849zM459.667 931.574v0h-335.692c-17.427 0-32.084-14.423-32.084-32.296v-335.713c0-17.407 14.657-32.317 32.084-32.317h335.692c17.893 0 32.317 14.911 32.317 32.317v335.713c0 17.871-14.423 32.296-32.317 32.296v0zM898.95 931.574v0h-335.481c-17.872 0-32.528-14.423-32.528-32.296v-335.714c0-17.407 14.657-32.317 32.528-32.317h335.481c17.893 0 32.55 14.911 32.55 32.317v335.713c0 17.872-14.657 32.297-32.55 32.297v0zM595.555 866.961v0h270.867v-270.849h-270.867v270.849z" p-id="2510" fill="#367998"></path></svg>