<?xml version="1.0" standalone="no"?><!DOCTYPE svg PUBLIC "-//W3C//DTD SVG 1.1//EN" "http://www.w3.org/Graphics/SVG/1.1/DTD/svg11.dtd"><svg t="1631775747551" class="icon" viewBox="0 0 1024 1024" version="1.1" xmlns="http://www.w3.org/2000/svg" p-id="2821" width="1000" height="1000" xmlns:xlink="http://www.w3.org/1999/xlink"><defs><style type="text/css"></style></defs><path d="M706.133333 938.666667H554.666667v-42.666667c0-59.733333-46.933333-106.666667-106.666667-106.666667s-106.666667 46.933333-106.666667 106.666667v42.666667H189.866667C132.266667 938.666667 85.333333 891.733333 85.333333 834.133333V682.666667h42.666667c59.733333 0 106.666667-46.933333 106.666667-106.666667s-46.933333-106.666667-106.666667-106.666667H85.333333v-151.466666C85.333333 260.266667 132.266667 213.333333 189.866667 213.333333H298.666667c0-83.2 66.133333-149.333333 149.333333-149.333333s149.333333 66.133333 149.333333 149.333333h108.8c57.6 0 104.533333 46.933333 104.533334 104.533334V426.666667c83.2 0 149.333333 66.133333 149.333333 149.333333s-66.133333 149.333333-149.333333 149.333333v108.8c0 57.6-46.933333 104.533333-104.533334 104.533334zM597.333333 896h108.8c34.133333 0 61.866667-27.733333 61.866667-61.866667V682.666667h42.666667c59.733333 0 106.666667-46.933333 106.666666-106.666667s-46.933333-106.666667-106.666666-106.666667h-42.666667v-151.466666c0-34.133333-27.733333-61.866667-61.866667-61.866667H554.666667v-42.666667c0-59.733333-46.933333-106.666667-106.666667-106.666666s-106.666667 46.933333-106.666667 106.666666v42.666667H189.866667C155.733333 256 128 283.733333 128 317.866667V426.666667c83.2 0 149.333333 66.133333 149.333333 149.333333s-66.133333 149.333333-149.333333 149.333333v108.8C128 868.266667 155.733333 896 189.866667 896H298.666667c0-83.2 66.133333-149.333333 149.333333-149.333333s149.333333 66.133333 149.333333 149.333333z" p-id="2822" fill="#367998"></path></svg>