<?xml version="1.0" standalone="no"?><!DOCTYPE svg PUBLIC "-//W3C//DTD SVG 1.1//EN" "http://www.w3.org/Graphics/SVG/1.1/DTD/svg11.dtd"><svg t="1631775706605" class="icon" viewBox="0 0 1024 1024" version="1.1" xmlns="http://www.w3.org/2000/svg" p-id="1540" width="1000" height="1000" xmlns:xlink="http://www.w3.org/1999/xlink"><defs><style type="text/css"></style></defs><path d="M921.6 352l-268.8 0C640 352 627.2 339.2 627.2 320l0 0c0-19.2 12.8-32 32-32l268.8 0c19.2 0 32 12.8 32 32l0 0C953.6 339.2 940.8 352 921.6 352z" p-id="1541" fill="#367998"></path><path d="M921.6 704l-268.8 0c-19.2 0-32-12.8-32-32l0 0c0-19.2 12.8-32 32-32l268.8 0c19.2 0 32 12.8 32 32l0 0C953.6 691.2 940.8 704 921.6 704z" p-id="1542" fill="#367998"></path><path d="M928 128 294.4 128C281.6 76.8 236.8 44.8 185.6 44.8 121.6 44.8 64 96 64 160s51.2 115.2 115.2 115.2c51.2 0 96-38.4 115.2-83.2l627.2 0C940.8 192 960 179.2 960 160S940.8 128 928 128zM185.6 230.4c-38.4 0-70.4-32-70.4-70.4 0-38.4 32-70.4 70.4-70.4 38.4 0 70.4 32 70.4 70.4C249.6 198.4 224 230.4 185.6 230.4z" p-id="1543" fill="#367998"></path><path d="M928 460.8 300.8 460.8C281.6 409.6 236.8 371.2 185.6 371.2c-64 0-115.2 51.2-115.2 115.2s51.2 115.2 115.2 115.2c51.2 0 96-38.4 115.2-83.2l627.2 0c19.2 0 32-12.8 32-32S947.2 460.8 928 460.8zM185.6 556.8c-38.4 0-70.4-32-70.4-70.4 0-38.4 32-70.4 70.4-70.4C224 422.4 256 454.4 256 492.8 256 524.8 224 556.8 185.6 556.8z" p-id="1544" fill="#367998"></path><path d="M928 832 300.8 832c-12.8-51.2-57.6-83.2-115.2-83.2-64 0-115.2 51.2-115.2 115.2s51.2 115.2 115.2 115.2c51.2 0 96-38.4 115.2-83.2l627.2 0c19.2 0 32-12.8 32-32S947.2 832 928 832zM185.6 928c-38.4 0-70.4-32-70.4-70.4 0-38.4 32-70.4 70.4-70.4 38.4 0 70.4 32 70.4 70.4C256 902.4 224 928 185.6 928z" p-id="1545" fill="#367998"></path></svg>