<?xml version="1.0" standalone="no"?><!DOCTYPE svg PUBLIC "-//W3C//DTD SVG 1.1//EN" "http://www.w3.org/Graphics/SVG/1.1/DTD/svg11.dtd"><svg t="1631775282477" class="icon" viewBox="0 0 1024 1024" version="1.1" xmlns="http://www.w3.org/2000/svg" p-id="1521" width="1000" height="1000" xmlns:xlink="http://www.w3.org/1999/xlink"><defs><style type="text/css"></style></defs><path d="M869.12 1024a151.04 151.04 0 0 1-106.88-44.16L486.4 704A360.32 360.32 0 0 1 26.24 232.96a56.96 56.96 0 0 1 42.24-35.84 57.6 57.6 0 0 1 53.76 16l140.8 140.8 90.24-90.24-140.8-140.8a59.52 59.52 0 0 1-16-53.76 59.52 59.52 0 0 1 36.48-42.24 360.32 360.32 0 0 1 484.48 275.2A355.84 355.84 0 0 1 704 487.04l275.2 275.84a151.04 151.04 0 0 1-106.88 256zM506.88 606.08l19.2 22.4 3.84 3.84 288 288.64a72.32 72.32 0 0 0 102.4-102.4L631.68 529.92h-3.84l-22.4-19.84 12.8-26.88a280.96 280.96 0 0 0-325.76-392.32l172.8 172.8-202.24 202.24-172.8-172.8a280.96 280.96 0 0 0 389.12 325.12z m0 0" fill="#367998" p-id="1522"></path></svg>