<?xml version="1.0" standalone="no"?><!DOCTYPE svg PUBLIC "-//W3C//DTD SVG 1.1//EN" "http://www.w3.org/Graphics/SVG/1.1/DTD/svg11.dtd"><svg t="1631775476551" class="icon" viewBox="0 0 1024 1024" version="1.1" xmlns="http://www.w3.org/2000/svg" p-id="1241" width="1000" height="1000" xmlns:xlink="http://www.w3.org/1999/xlink"><defs><style type="text/css"></style></defs><path d="M888.49 222.686v-31.54l-65.672-0.955h-0.205a465.715 465.715 0 0 1-144.315-31.334c-77.005-31.198-126.294-66.765-126.703-67.107l-39.8-28.672-39.185 28.468c-2.048 1.501-49.903 36.044-126.908 67.31a447.42 447.42 0 0 1-144.52 31.335l-65.877 0.956v378.88c0 87.04 49.834 184.661 137.01 267.81 37.547 35.84 79.258 66.355 120.833 88.2 43.28 22.733 84.24 34.612 118.852 34.612 34.406 0 75.776-12.152 119.603-35.158a547.977 547.977 0 0 0 120.013-87.654 515.209 515.209 0 0 0 96.188-122.88c27.102-49.562 40.823-98.304 40.823-144.999l-0.136-347.204zM510.09 143.428l1.706-1.365 1.775 1.365c5.803 4.165 59.529 41.848 140.356 74.752 79.19 32.086 153.6 35.635 167.663 36.045l2.594 0.068 0.205 315.734c0.137 69.495-42.598 150.186-117.077 221.457C641.57 854.289 563.13 896.478 512 896.478c-23.689 0-55.57-9.899-89.702-27.785a478.822 478.822 0 0 1-105.609-77.278C242.21 720.213 199.475 639.522 199.475 569.89V254.225l2.73-0.136c3.278 0 82.604-1.502 167.664-35.977a739.942 739.942 0 0 0 140.22-74.615v-0.069z" p-id="1242" fill="#367998"></path><path d="M713.318 368.64a32.222 32.222 0 0 0-45.329 0L449.195 587.435l-93.184-93.116a32.222 32.222 0 0 0-45.33 0 32.222 32.222 0 0 0 0 45.26l115.85 115.85a32.29 32.29 0 0 0 45.328 0L713.32 413.9a32.222 32.222 0 0 0 0-45.33z" p-id="1243" fill="#367998"></path></svg>