<?xml version="1.0" standalone="no"?><!DOCTYPE svg PUBLIC "-//W3C//DTD SVG 1.1//EN" "http://www.w3.org/Graphics/SVG/1.1/DTD/svg11.dtd"><svg t="1631775823071" class="icon" viewBox="0 0 1036 1024" version="1.1" xmlns="http://www.w3.org/2000/svg" p-id="5034" width="1011.71875" height="1000" xmlns:xlink="http://www.w3.org/1999/xlink"><defs><style type="text/css"></style></defs><path d="M986.177839 312.383037a185.25855 185.25855 0 0 0-262.303694-261.253078l-9.45554-4.552668A462.270862 462.270862 0 0 0 127.474692 305.378933a184.908345 184.908345 0 0 0 0 350.205198 64.087551 64.087551 0 0 0 2.801642 8.75513 462.971272 462.971272 0 0 0 483.983584 273.860465 185.25855 185.25855 0 0 0 317.28591-190.161422 461.220246 461.220246 0 0 0 85.800273-268.607387 448.963064 448.963064 0 0 0-31.168262-167.04788zM185.25855 555.425445a74.243502 74.243502 0 1 1 73.893297-74.243502 74.243502 74.243502 0 0 1-73.893297 74.243502zM777.45554 925.592339a74.243502 74.243502 0 1 1 74.243502-74.243502 73.893297 73.893297 0 0 1-74.243502 74.243502z m68.290014-245.143639a182.807114 182.807114 0 0 0-47.627907-11.906976A185.608755 185.608755 0 0 0 595.348837 831.036936a350.205198 350.205198 0 0 1-343.901505-175.102599 185.25855 185.25855 0 0 0 0-347.403557 350.205198 350.205198 0 0 1 420.246238-158.642955 196.114911 196.114911 0 0 0 0 72.842681 185.608755 185.608755 0 0 0 218.177839 144.984952 353.00684 353.00684 0 0 1-42.374829 312.733242z m5.953488-420.246238a74.243502 74.243502 0 1 1 73.893297-73.893296 74.243502 74.243502 0 0 1-73.893297 72.842681z" p-id="5035" fill="#367998"></path></svg>